<?xml version="1.0" standalone="no"?>
<!DOCTYPE svg PUBLIC "-//W3C//DTD SVG 20010904//EN"
 "http://www.w3.org/TR/2001/REC-SVG-20010904/DTD/svg10.dtd">
<svg version="1.0" xmlns="http://www.w3.org/2000/svg"
 width="276.000000pt" height="360.000000pt" viewBox="0 0 276.000000 360.000000"
 preserveAspectRatio="xMidYMid meet">

<g transform="translate(0.000000,360.000000) scale(0.100000,-0.100000)"
fill="#000000" stroke="none">
<path d="M16 3585 c-3 -8 -1 -15 4 -15 6 0 10 7 10 15 0 8 -2 15 -4 15 -2 0
-6 -7 -10 -15z"/>
<path d="M125 3590 c3 -5 8 -10 11 -10 2 0 4 5 4 10 0 6 -5 10 -11 10 -5 0 -7
-4 -4 -10z"/>
<path d="M193 3573 c4 -16 10 -49 15 -75 l9 -48 -79 -1 c-43 -1 -82 -3 -88 -4
-5 -1 -19 -3 -30 -4 -20 -1 -20 -6 -20 -445 1 -335 4 -446 13 -450 9 -5 9 -7
-1 -12 -16 -8 -16 -90 1 -98 9 -5 9 -7 0 -12 -18 -8 -16 -24 2 -24 8 0 15 -4
15 -10 0 -5 -7 -10 -15 -10 -10 0 -15 -10 -15 -34 0 -35 17 -50 45 -40 8 4 15
1 15 -5 0 -6 10 -11 23 -11 18 0 19 2 7 11 -12 8 -10 9 8 7 46 -6 21 -23 -38
-26 l-60 -3 0 -94 c0 -89 1 -95 20 -95 13 0 20 6 18 14 -2 8 2 15 7 16 24 3
13 -29 -14 -41 -30 -13 -31 -17 -31 -74 0 -60 0 -60 38 -77 35 -17 18 -19 -20
-3 -17 7 -18 -13 -18 -329 0 -185 3 -336 8 -336 4 0 70 7 147 15 138 15 222
19 214 11 -2 -2 -86 -12 -187 -22 l-182 -18 0 -623 0 -623 875 0 c640 0 875 3
875 11 0 8 4 8 13 1 9 -7 172 -11 505 -12 l492 0 0 191 0 191 -62 -7 c-35 -4
-81 -11 -103 -15 -22 -5 -89 -6 -150 -4 -223 10 -275 10 -275 2 0 -4 -8 -7
-17 -6 -22 3 -97 -17 -138 -36 -16 -8 -48 -22 -70 -31 -22 -9 -48 -21 -57 -26
-10 -5 -19 -5 -23 0 -9 15 7 42 24 40 37 -3 50 1 45 16 -4 10 0 15 14 15 10 0
46 14 78 32 l59 32 255 2 c140 1 278 5 305 9 98 12 115 16 115 26 0 7 -29 8
-82 4 -100 -7 -87 9 15 20 l67 7 0 64 0 64 -59 0 c-38 0 -61 -4 -64 -12 -4
-10 -6 -10 -6 0 -1 6 -9 12 -18 12 -31 1 -53 26 -53 58 0 17 5 34 10 37 7 4 7
11 2 18 -5 7 -12 40 -15 74 -3 37 -13 74 -24 90 -10 15 -25 40 -33 56 -7 15
-19 27 -27 27 -17 0 -17 -9 1 -29 8 -9 16 -23 18 -31 2 -8 9 -20 17 -26 17
-13 43 -159 36 -201 -6 -35 -31 -45 -41 -18 -4 8 -13 15 -21 15 -8 0 -13 6
-10 13 2 6 10 11 16 10 17 -4 13 14 -4 21 -9 3 -15 0 -15 -9 0 -8 -7 -15 -16
-15 -20 0 -14 20 11 34 34 20 45 34 45 62 0 27 -1 27 -15 8 -8 -10 -15 -15
-15 -10 0 5 -6 3 -14 -3 -12 -10 -17 -8 -25 7 -6 11 -8 22 -4 25 3 4 7 25 8
47 2 28 -2 40 -11 40 -17 0 -18 16 -3 25 11 7 -23 46 -38 44 -4 -1 -14 -1 -22
0 -21 2 7 31 31 31 12 0 18 6 16 18 -3 18 10 20 245 21 l97 1 0 50 c0 29 -5
50 -11 50 -6 0 -17 7 -25 15 -9 8 -11 15 -5 15 5 0 13 -4 16 -10 11 -17 21
-11 23 15 1 15 -4 28 -13 31 -8 4 -15 11 -15 16 0 6 6 5 15 -2 13 -11 15 -7
15 23 0 30 -4 37 -30 46 -16 5 -30 12 -30 14 0 2 14 3 30 1 32 -4 37 5 19 38
-8 15 -8 19 0 14 7 -5 11 3 11 21 0 35 -9 48 -37 57 -13 4 -23 14 -23 22 0 13
4 12 30 -1 29 -15 30 -15 30 8 0 13 -6 29 -12 36 -10 10 -10 12 -1 7 9 -5 12
74 13 353 0 311 -2 360 -15 365 -19 7 -20 36 0 36 13 0 15 82 15 675 l0 675
-1005 0 -1005 0 0 -82 c0 -45 -2 -79 -5 -76 -5 5 -14 80 -15 131 l0 27 -185 0
-185 0 -1 -52 -1 -53 -10 53 c-9 50 -11 52 -42 52 -33 0 -42 -15 -29 -50 10
-24 10 -34 1 -46 -5 -7 1 -18 16 -28 32 -20 56 -21 56 -1 0 8 4 15 8 15 4 0 8
-9 8 -20 0 -18 -7 -20 -69 -20 l-70 0 6 40 c3 26 2 38 -5 34 -7 -5 -9 6 -4 32
5 28 4 35 -3 24 -9 -13 -11 -13 -11 3 0 9 -5 17 -11 17 -7 0 -9 -11 -6 -27z
m868 -153 c362 0 539 -3 539 -10 0 -7 -169 -10 -507 -11 -548 -2 -570 -2 -579
-11 -5 -6 9 -267 36 -648 5 -74 9 -150 10 -169 l0 -34 168 7 c92 3 230 9 307
12 92 4 137 3 130 -3 -5 -6 -143 -18 -305 -27 -162 -10 -304 -18 -315 -19 -18
-2 -20 5 -22 53 -2 30 -10 179 -18 330 -8 151 -18 325 -21 385 -3 61 -7 121
-10 134 -5 21 -2 23 22 17 14 -4 269 -7 565 -6z m748 -213 c1 -116 4 -307 7
-424 l6 -211 -34 2 c-18 1 -139 -3 -268 -10 -295 -16 -292 -16 -286 -5 3 5
106 11 228 15 123 4 244 9 271 12 l47 6 0 44 c0 37 -2 42 -17 37 -10 -4 -24
-14 -31 -22 -10 -14 -12 -14 -10 -1 2 10 -4 14 -17 13 -11 -1 -75 -3 -142 -3
-92 -1 -125 -5 -131 -15 -5 -10 -49 -16 -168 -22 l-161 -8 -7 74 c-10 116 -8
141 9 141 8 0 15 7 15 16 0 10 -6 14 -14 11 -11 -5 -15 19 -21 124 l-7 129
-45 0 c-27 0 -42 4 -38 10 4 6 -17 10 -55 10 -38 0 -59 -4 -55 -10 4 -6 -19
-10 -62 -11 -37 0 -84 -2 -103 -4 -19 -2 -38 1 -41 7 -7 11 -97 13 -107 3 -7
-6 -3 -130 5 -173 4 -26 9 -32 22 -27 9 4 23 9 31 12 13 4 13 4 0 -7 -12 -9 5
-10 73 -7 48 2 87 0 87 -5 0 -4 -38 -8 -85 -8 -69 0 -85 -3 -85 -15 0 -8 -9
-15 -20 -15 -15 0 -20 -7 -20 -25 0 -16 6 -25 15 -25 8 0 15 -5 15 -11 0 -6
-7 -8 -16 -5 -13 5 -15 2 -10 -16 3 -13 6 -39 6 -60 0 -31 3 -35 20 -31 12 3
20 0 20 -6 0 -7 4 -10 8 -7 4 2 45 8 91 12 78 6 83 5 79 -12 -3 -16 -14 -19
-73 -22 -38 -2 -72 -7 -75 -12 -4 -6 -18 -6 -38 -1 -30 9 -32 8 -32 -16 0 -54
-9 -14 -15 67 -4 47 -9 101 -11 120 -2 19 -10 151 -17 292 -10 206 -9 259 1
263 6 2 12 1 12 -4 0 -5 19 -5 43 -1 50 10 1117 13 1141 4 23 -9 24 -159 1
-168 -8 -3 -15 -10 -15 -17 0 -6 -10 -19 -22 -29 -20 -16 -21 -19 -6 -25 14
-6 16 -21 13 -116 l-4 -109 30 0 30 0 -3 253 c-3 252 -3 253 18 255 21 2 21
-1 23 -211z m-1394 175 c-3 -3 -11 0 -18 7 -9 10 -8 11 6 5 10 -3 15 -9 12
-12z m12 -38 c-3 -3 -12 -4 -19 -1 -8 3 -5 6 6 6 11 1 17 -2 13 -5z m11 -109
c-2 -39 0 -67 7 -70 6 -3 6 -7 -2 -11 -7 -3 -13 -12 -13 -20 0 -9 5 -12 10 -9
6 4 10 -25 10 -79 0 -98 -15 -122 -24 -38 -10 90 -6 292 6 292 6 0 9 -25 6
-65z m-41 -11 c-12 -13 -347 -18 -347 -6 0 8 54 12 172 14 95 2 175 2 177 1 2
-2 1 -6 -2 -9z m3 -33 c0 -6 -74 -10 -175 -11 -113 0 -175 3 -175 10 0 6 63
10 175 10 101 0 175 -4 175 -9z m-37 -28 c-7 -2 -19 -2 -25 0 -7 3 -2 5 12 5
14 0 19 -2 13 -5z m-155 -49 c-4 -3 -27 -6 -53 -6 -26 0 -49 3 -52 6 -4 3 20
6 52 6 32 0 56 -3 53 -6z m49 0 c-3 -3 -12 -4 -19 -1 -8 3 -5 6 6 6 11 1 17
-2 13 -5z m793 -30 c0 -8 -4 -12 -10 -9 -5 3 -10 10 -10 16 0 5 5 9 10 9 6 0
10 -7 10 -16z m-873 -1 c-20 -2 -52 -2 -70 0 -17 2 0 4 38 4 39 0 53 -2 32 -4z
m483 -2 c0 -5 -8 -7 -19 -4 -10 3 -22 0 -25 -6 -9 -14 -36 -14 -36 0 0 5 4 8
9 4 5 -3 12 -1 16 5 8 12 55 13 55 1z m355 -1 c3 -5 -1 -10 -9 -10 -9 0 -16 5
-16 10 0 6 4 10 9 10 6 0 13 -4 16 -10z m-110 -14 c11 -3 44 -5 73 -5 34 -1
52 -5 52 -13 0 -9 -22 -14 -70 -15 -56 -2 -70 1 -70 12 0 11 -12 15 -41 15
-25 0 -38 -4 -34 -10 4 -6 11 -8 16 -5 5 4 9 2 9 -3 0 -6 -48 -10 -112 -10
-62 1 -99 3 -81 5 22 3 30 8 27 18 -5 11 10 15 68 17 74 3 127 1 163 -6z m52
8 c-3 -3 -12 -4 -19 -1 -8 3 -5 6 6 6 11 1 17 -2 13 -5z m-674 -41 c-18 -2
-48 -2 -65 0 -18 2 -4 4 32 4 36 0 50 -2 33 -4z m643 -26 c4 -4 -17 -7 -47 -6
-39 1 -47 3 -29 8 30 9 66 8 76 -2z m-516 -7 c0 -6 -57 -10 -150 -11 -82 -1
-160 -2 -172 -2 -12 -1 -23 4 -26 11 -3 9 38 12 172 12 111 0 176 -4 176 -10z
m223 3 c-7 -2 -21 -2 -30 0 -10 3 -4 5 12 5 17 0 24 -2 18 -5z m391 -12 c4 -5
-29 -13 -71 -17 -43 -4 -78 -5 -79 -3 0 2 -8 -2 -17 -10 -14 -11 -18 -11 -23
3 -4 11 -11 13 -22 7 -14 -7 -88 -16 -201 -24 -29 -2 -39 18 -15 27 10 4 57 9
106 13 65 4 88 2 88 -6 0 -7 5 -9 13 -4 6 4 53 11 102 14 50 3 95 6 102 7 6 1
14 -2 17 -7z m36 -11 c0 -5 -5 -10 -11 -10 -5 0 -7 5 -4 10 3 6 8 10 11 10 2
0 4 -4 4 -10z m-650 -50 c0 -5 -6 -10 -12 -10 -7 0 -86 -3 -175 -6 -115 -5
-163 -3 -163 4 0 8 43 12 123 15 67 1 146 4 175 5 29 1 52 -2 52 -8z m537 4
c-3 -3 -12 -4 -19 -1 -8 3 -5 6 6 6 11 1 17 -2 13 -5z m-254 -11 c-7 -2 -19
-2 -25 0 -7 3 -2 5 12 5 14 0 19 -2 13 -5z m267 -4 c69 -1 79 -3 55 -10 -16
-5 -55 -10 -85 -11 -30 0 -63 -5 -74 -10 -23 -12 -41 4 -32 27 4 12 13 15 29
11 12 -3 60 -6 107 -7z m-620 -28 c0 -9 -119 -21 -212 -21 -98 0 -65 19 40 23
53 1 114 4 135 5 20 1 37 -2 37 -7z m79 -65 c-9 -8 -10 -5 -5 14 3 14 6 32 7
40 1 8 4 2 6 -14 3 -16 -1 -34 -8 -40z m558 38 c-3 -3 -12 -4 -19 -1 -8 3 -5
6 6 6 11 1 17 -2 13 -5z m-647 -14 c0 -5 -21 -10 -47 -10 -27 0 -85 -3 -130
-7 -58 -4 -83 -3 -83 5 0 10 28 13 208 20 29 1 52 -2 52 -8z m343 3 c-7 -2
-19 -2 -25 0 -7 3 -2 5 12 5 14 0 19 -2 13 -5z m50 0 c-7 -2 -19 -2 -25 0 -7
3 -2 5 12 5 14 0 19 -2 13 -5z m237 -5 c55 -1 67 -3 35 -5 -27 -2 -57 -6 -65
-10 -8 -3 -20 -7 -26 -8 -6 -2 -22 -6 -34 -10 -19 -6 -22 -4 -16 10 4 13 2 16
-9 11 -9 -3 -15 0 -15 10 0 12 6 15 23 10 12 -3 60 -7 107 -8z m-177 -18 c-4
-4 -41 -10 -80 -12 -56 -4 -73 -2 -73 8 0 9 21 14 73 16 77 3 94 1 80 -12z
m-633 -14 c0 -2 -9 -6 -20 -9 -11 -3 -18 -1 -14 4 5 9 34 13 34 5z m147 -2
c-3 -3 -12 -4 -19 -1 -8 3 -5 6 6 6 11 1 17 -2 13 -5z m-200 -10 c-3 -3 -12
-4 -19 -1 -8 3 -5 6 6 6 11 1 17 -2 13 -5z m273 -19 c0 -8 -4 -15 -10 -15 -5
0 -7 7 -4 15 4 8 8 15 10 15 2 0 4 -7 4 -15z m403 -2 c-7 -2 -19 -2 -25 0 -7
3 -2 5 12 5 14 0 19 -2 13 -5z m97 -3 c0 -6 33 -8 90 -4 87 6 90 5 90 -15 0
-19 -6 -21 -70 -21 -40 0 -70 -4 -70 -10 0 -5 -7 -10 -15 -10 -8 0 -15 5 -15
10 0 6 -11 10 -25 10 -39 0 -33 45 8 49 4 1 7 -3 7 -9z m-67 -16 c-7 -3 -13
-12 -13 -19 0 -8 -8 -12 -20 -10 -11 2 -25 -2 -32 -8 -16 -15 -90 -17 -100 -2
-13 17 -9 33 10 37 29 6 168 8 155 2z m-776 -96 c-2 -18 -4 -6 -4 27 0 33 2
48 4 33 2 -15 2 -42 0 -60z m383 52 c0 -5 -5 -10 -11 -10 -5 0 -7 5 -4 10 3 6
8 10 11 10 2 0 4 -4 4 -10z m603 -17 c-38 -5 -44 -20 -10 -26 12 -2 -9 -5 -48
-6 -38 -1 -80 -4 -91 -7 -16 -4 -23 0 -27 15 -2 11 -3 21 -2 23 2 2 50 3 107
4 57 0 88 -1 71 -3z m-568 -52 c-3 -6 -16 -12 -28 -12 -17 -1 -15 -3 8 -8 29
-7 30 -7 8 -19 -28 -16 -53 -5 -53 23 0 18 4 21 24 18 13 -3 27 0 31 7 4 6 9
9 12 6 3 -2 2 -9 -2 -15z m580 -18 c-11 -3 -24 -9 -29 -14 -13 -12 -116 -12
-116 0 0 9 55 16 135 18 18 0 22 -1 10 -4z m448 0 c-7 -2 -19 -2 -25 0 -7 3
-2 5 12 5 14 0 19 -2 13 -5z m-683 -13 c0 -5 -17 -10 -37 -10 -21 0 -55 -3
-75 -6 -24 -4 -38 -3 -38 4 0 6 24 13 53 15 28 2 62 4 75 5 12 1 22 -2 22 -8z
m75 -12 c6 -4 2 -8 -7 -8 -10 0 -18 7 -18 17 0 9 3 12 8 7 4 -5 12 -12 17 -16z
m905 12 c0 -6 -6 -12 -12 -15 -7 -2 -182 -11 -388 -20 -206 -9 -449 -20 -540
-25 -232 -13 -262 -12 -258 3 3 6 16 13 29 13 13 1 87 4 164 8 199 9 535 26
705 35 220 12 300 12 300 1z m-1276 -35 c5 -22 4 -26 -4 -15 -5 8 -10 24 -10
34 0 26 6 18 14 -19z m1999 15 c28 0 41 -10 45 -32 2 -15 -5 -18 -43 -18 -47
0 -50 4 -38 50 4 13 8 19 11 12 2 -6 13 -12 25 -12z m-2013 -41 c0 -6 -4 -7
-10 -4 -5 3 -10 11 -10 16 0 6 5 7 10 4 6 -3 10 -11 10 -16z m-240 3 c0 -5 -7
-17 -15 -28 -8 -10 -15 -28 -15 -38 0 -11 -3 -16 -7 -13 -8 9 17 87 29 87 4 0
8 -4 8 -8z m226 -34 c8 -27 -27 -80 -60 -89 -26 -7 -27 -6 -14 9 25 28 29 52
13 69 -20 20 -12 30 24 30 21 0 33 -6 37 -19z m1352 -36 l-3 -57 -195 -13
c-107 -7 -213 -12 -235 -12 -22 0 -35 -4 -28 -8 6 -4 -23 -7 -65 -7 -43 1
-124 -2 -182 -6 -58 -4 -197 -11 -310 -15 -113 -3 -218 -7 -235 -8 -30 -1 -30
0 -33 57 -2 41 1 57 10 58 7 0 24 2 38 4 14 1 99 6 190 10 91 4 199 11 240 16
41 5 111 11 155 13 44 2 62 1 40 -1 -22 -2 -45 -9 -51 -14 -6 -5 -33 -6 -59
-2 -38 5 -47 3 -43 -8 8 -25 272 -10 293 16 9 12 152 22 443 32 l33 1 -3 -56z
m-1768 -17 c1 -5 2 -19 1 -29 -2 -35 -10 -11 -15 45 -5 50 -2 46 14 -16z m135
16 c3 -19 1 -39 -6 -47 -6 -8 -8 -14 -4 -14 4 0 1 -7 -6 -16 -11 -14 -10 -18
6 -31 11 -8 34 -21 50 -28 24 -11 27 -15 13 -20 -9 -4 -28 1 -41 10 -31 20
-63 65 -46 65 7 0 10 12 7 30 -3 17 -1 30 4 30 4 0 8 14 8 32 0 39 7 34 15
-11z m1105 31 c0 -13 -12 -22 -22 -16 -10 6 -1 24 13 24 5 0 9 -4 9 -8z m800
-37 c-7 -9 -15 -13 -18 -10 -3 2 1 11 8 20 7 9 15 13 18 10 3 -2 -1 -11 -8
-20z m97 19 c-3 -3 -12 -4 -19 -1 -8 3 -5 6 6 6 11 1 17 -2 13 -5z m-183 -62
c12 -6 15 -12 7 -16 -13 -8 -71 46 -71 66 0 7 10 1 23 -13 12 -15 30 -31 41
-37z m-1675 6 c-5 -18 -16 -39 -25 -48 -15 -14 -15 -13 -5 7 6 12 15 33 21 47
14 37 20 32 9 -6z m161 11 c0 -5 -4 -9 -10 -9 -5 0 -10 7 -10 16 0 8 5 12 10
9 6 -3 10 -10 10 -16z m-423 -51 c-3 -7 -5 -2 -5 12 0 14 2 19 5 13 2 -7 2
-19 0 -25z m364 0 c-1 -5 -1 -17 -1 -28 0 -11 -7 -20 -15 -20 -10 0 -15 10
-15 31 0 22 4 30 16 27 8 -2 15 -6 15 -10z m2019 -18 c0 -5 -2 -10 -4 -10 -3
0 -8 5 -11 10 -3 6 -1 10 4 10 6 0 11 -4 11 -10z m-435 -39 c3 -5 1 -12 -5
-16 -5 -3 -10 1 -10 9 0 18 6 21 15 7z m635 -66 c0 -36 -3 -65 -7 -65 -5 -1
-31 -2 -60 -4 -36 -2 -50 0 -47 9 3 6 -7 17 -21 25 -31 16 -58 57 -51 75 3 10
29 15 83 18 43 1 84 4 91 5 8 1 12 -17 12 -63z m-2214 0 c3 -28 -16 -34 -35
-11 -9 11 -8 18 5 30 19 20 26 15 30 -19z m54 6 c0 -11 -26 -22 -34 -14 -3 4
-6 15 -6 25 0 16 3 17 20 8 11 -6 20 -15 20 -19z m-242 -8 c-10 -2 -26 -2 -35
0 -10 3 -2 5 17 5 19 0 27 -2 18 -5z m2460 -35 c-2 -6 -10 -14 -16 -16 -7 -2
-10 2 -6 12 7 18 28 22 22 4z m-1143 -8 c-11 -5 -27 -9 -35 -9 -13 -1 -13 0 0
9 8 5 24 9 35 9 l20 0 -20 -9z m939 -6 c24 -23 19 -36 -11 -32 -20 2 -29 9
-31 26 -4 26 19 30 42 6z m-600 0 c18 -7 21 -30 6 -39 -5 -3 -18 -1 -28 4 -15
8 -18 6 -17 -7 0 -10 5 -23 9 -30 9 -16 11 -14 -38 -31 -34 -12 -76 -43 -76
-56 0 -3 9 -5 21 -5 11 0 18 4 15 9 -3 5 5 8 19 7 28 -1 35 -16 8 -16 -9 0
-27 -10 -40 -22 l-23 -21 0 21 c0 14 -5 20 -14 16 -7 -3 -16 2 -19 10 -4 10
-1 13 8 10 7 -3 16 3 20 15 3 12 11 21 17 21 5 0 8 7 4 15 -3 8 -1 15 5 15 17
0 41 29 33 41 -4 8 1 9 16 4 15 -5 20 -3 16 3 -3 6 4 18 16 26 26 19 22 18 42
10z m-404 -13 c0 -5 -9 -11 -20 -14 -20 -5 -26 3 -13 16 9 10 33 8 33 -2z
m655 -1 c4 -6 -12 -10 -39 -10 -25 0 -46 -5 -46 -10 0 -6 -6 -5 -14 2 -14 13
-5 16 81 26 6 1 15 -2 18 -8z m-1735 -40 c0 -22 -4 -40 -10 -40 -11 0 -13 39
-4 64 10 26 14 19 14 -24z m593 13 c-7 -2 -19 -2 -25 0 -7 3 -2 5 12 5 14 0
19 -2 13 -5z m75 -28 c-9 -9 -107 -12 -102 -3 3 4 28 8 56 8 28 0 49 -2 46 -5z
m-165 -27 c-5 -10 -16 -12 -33 -7 l-25 7 28 1 c15 1 27 6 27 13 0 6 3 9 6 5 3
-3 2 -12 -3 -19z m44 -4 c-3 -3 -12 -4 -19 -1 -8 3 -5 6 6 6 11 1 17 -2 13 -5z
m-144 -11 c-7 -2 -19 -2 -25 0 -7 3 -2 5 12 5 14 0 19 -2 13 -5z m-406 -25
c-3 -8 -6 -5 -6 6 -1 11 2 17 5 13 3 -3 4 -12 1 -19z m2253 -18 c0 -5 -5 -10
-11 -10 -5 0 -7 5 -4 10 3 6 8 10 11 10 2 0 4 -4 4 -10z m-1091 -14 c-11 -9
-63 -17 -54 -8 6 6 19 12 30 14 20 4 32 1 24 -6z m861 10 c0 -3 -4 -8 -10 -11
-5 -3 -10 -1 -10 4 0 6 5 11 10 11 6 0 10 -2 10 -4z m-1680 -25 c0 -5 -9 -7
-21 -4 -12 4 -25 0 -30 -8 -7 -11 -9 -11 -9 -1 0 9 -10 11 -35 6 -23 -4 -35
-2 -35 5 0 7 24 11 65 11 36 0 65 -4 65 -9z m-725 -11 c-3 -5 -10 -10 -16 -10
-5 0 -9 5 -9 10 0 6 7 10 16 10 8 0 12 -4 9 -10z m1632 -6 c-3 -3 -12 -4 -19
-1 -8 3 -5 6 6 6 11 1 17 -2 13 -5z m78 -14 c22 -10 13 -13 -27 -10 -16 1 -28
-4 -28 -10 0 -7 -5 -6 -14 2 -26 24 25 37 69 18z m-1010 -30 c-16 -4 -43 -8
-60 -8 -25 -1 -27 1 -10 8 11 5 38 8 60 8 38 0 39 -1 10 -8z m-695 -10 c8 -5
11 -10 5 -10 -5 0 -17 5 -25 10 -8 5 -10 10 -5 10 6 0 17 -5 25 -10z m1385 0
c-3 -5 6 -5 24 1 21 7 36 7 51 -1 25 -13 22 -35 -6 -36 -37 -2 -42 -4 -93 -39
-28 -19 -60 -35 -71 -35 -11 0 -20 -4 -20 -10 0 -5 5 -10 10 -10 18 0 11 -29
-10 -40 -16 -8 -20 -8 -20 4 0 8 4 17 10 21 5 3 7 11 4 18 -2 7 4 24 15 36 12
13 18 28 14 34 -3 5 -2 7 4 4 6 -4 15 5 21 18 7 15 17 22 25 19 8 -3 17 2 20
10 4 9 11 16 17 16 6 0 9 -4 5 -10z m410 0 c3 -5 1 -10 -4 -10 -6 0 -11 5 -11
10 0 6 2 10 4 10 3 0 8 -4 11 -10z m-1262 -38 c-2 -7 4 -9 14 -5 10 4 14 2 10
-4 -4 -6 -16 -13 -27 -16 -16 -4 -20 0 -20 20 0 15 5 23 13 20 6 -2 11 -9 10
-15z m1317 -13 c7 -11 9 -23 6 -26 -8 -9 -36 17 -36 33 0 21 18 17 30 -7z
m-600 -9 c0 -5 -5 -10 -11 -10 -5 0 -7 5 -4 10 3 6 8 10 11 10 2 0 4 -4 4 -10z
m-1180 -21 c0 -6 -4 -7 -10 -4 -5 3 -10 11 -10 16 0 6 5 7 10 4 6 -3 10 -11
10 -16z m1463 -14 c-7 -41 -64 -105 -94 -105 -12 0 -16 -5 -13 -15 7 -18 -7
-20 -25 -2 -12 10 -13 8 -7 -8 6 -18 5 -19 -7 -3 -15 19 -29 14 -21 -7 3 -7 0
-16 -7 -21 -8 -5 -11 -2 -7 7 3 8 -1 20 -8 27 -8 7 -14 8 -14 3 0 -7 -9 -7
-25 1 -31 14 -33 29 -3 24 12 -1 29 3 36 11 7 7 31 13 52 13 31 0 44 6 66 33
17 20 29 27 31 20 8 -24 23 -13 17 11 -5 20 11 42 33 46 1 0 -1 -16 -4 -35z
m244 27 c6 -4 17 -21 23 -37 l11 -30 -20 22 c-12 12 -21 26 -21 32 0 5 -6 12
-12 14 -7 3 -8 6 -3 6 6 0 15 -3 22 -7z m-377 -12 c0 -5 -7 -10 -15 -10 -8 0
-15 5 -15 10 0 6 7 10 15 10 8 0 15 -4 15 -10z m-215 -10 c3 -5 1 -10 -4 -10
-6 0 -11 5 -11 10 0 6 2 10 4 10 3 0 8 -4 11 -10z m-1142 -7 c-7 -2 -19 -2
-25 0 -7 3 -2 5 12 5 14 0 19 -2 13 -5z m535 -9 c30 -21 28 -27 -17 -52 -27
-16 -81 -28 -178 -42 -76 -10 -180 -26 -231 -35 -52 -9 -100 -14 -108 -11 -29
11 -14 35 29 46 23 6 55 15 71 21 17 5 86 18 155 29 69 10 153 28 186 39 33
10 62 19 65 20 3 1 16 -6 28 -15z m978 -29 c-1 -29 -16 -35 -16 -7 0 16 8 32
16 32 1 0 1 -11 0 -25z m44 4 c0 -6 -4 -7 -10 -4 -5 3 -10 11 -10 16 0 6 5 7
10 4 6 -3 10 -11 10 -16z m24 -9 c-6 -6 -10 -2 -11 12 -2 16 1 18 10 9 7 -7 8
-14 1 -21z m428 16 c6 4 9 1 7 -5 -7 -19 -24 -14 -26 6 -2 10 0 12 3 5 3 -6
10 -9 16 -6z m-1995 -14 c-9 -2 -15 -8 -11 -13 3 -5 2 -9 -3 -8 -23 4 -35 -2
-29 -16 7 -20 3 -19 -19 5 -18 20 -18 21 0 14 14 -6 16 -4 10 6 -5 8 -4 11 3
6 6 -3 17 0 24 8 7 7 20 11 28 8 12 -5 12 -7 -3 -10z m1093 -12 c0 -5 -5 -10
-11 -10 -5 0 -7 5 -4 10 3 6 8 10 11 10 2 0 4 -4 4 -10z m936 -5 c-3 -20 -16
-31 -16 -13 0 13 8 28 16 28 1 0 1 -7 0 -15z m-163 -19 c4 -10 1 -13 -9 -9 -7
3 -14 9 -14 14 0 14 17 10 23 -5z m227 4 c-8 -5 -19 -10 -25 -10 -5 0 -3 5 5
10 8 5 20 10 25 10 6 0 3 -5 -5 -10z m-494 -37 c-7 -7 -26 7 -26 19 0 6 6 6
15 -2 9 -7 13 -15 11 -17z m204 17 c0 -5 -2 -10 -4 -10 -3 0 -8 5 -11 10 -3 6
-1 10 4 10 6 0 11 -4 11 -10z m480 0 c22 -7 20 -8 -15 -9 -22 0 -47 4 -55 9
-11 7 -8 9 15 9 17 -1 41 -5 55 -9z m-183 -25 c-6 -7 -17 -10 -24 -8 -9 4 -9
8 0 18 6 7 17 10 24 8 9 -4 9 -8 0 -18z m-1022 -13 c-8 -8 -25 10 -19 20 4 6
9 5 15 -3 4 -7 6 -15 4 -17z m135 14 c0 -3 -4 -8 -10 -11 -5 -3 -10 -1 -10 4
0 6 5 11 10 11 6 0 10 -2 10 -4z m-315 -16 c3 -5 1 -10 -4 -10 -6 0 -11 5 -11
10 0 6 2 10 4 10 3 0 8 -4 11 -10z m1555 6 c0 -11 -19 -15 -25 -6 -3 5 1 10 9
10 9 0 16 -2 16 -4z m-310 -16 c13 -9 13 -10 0 -10 -8 0 -22 5 -30 10 -13 9
-13 10 0 10 8 0 22 -5 30 -10z m-1500 -10 c0 -5 -2 -10 -4 -10 -3 0 -8 5 -11
10 -3 6 -1 10 4 10 6 0 11 -4 11 -10z m1327 -2 c16 -21 23 -47 14 -52 -4 -3
-21 9 -37 27 -16 18 -22 26 -14 20 20 -18 35 -16 20 2 -7 8 -8 15 -2 15 5 0
14 -6 19 -12z m228 2 c3 -5 2 -10 -4 -10 -5 0 -13 5 -16 10 -3 6 -2 10 4 10 5
0 13 -4 16 -10z m170 -13 c19 -4 19 -5 -1 -6 -12 0 -28 7 -35 17 -12 15 -12
16 1 6 8 -7 24 -14 35 -17z m-1320 3 c3 -5 1 -10 -4 -10 -6 0 -11 5 -11 10 0
6 2 10 4 10 3 0 8 -4 11 -10z m440 0 c3 -5 -1 -10 -9 -10 -9 0 -16 5 -16 10 0
6 4 10 9 10 6 0 13 -4 16 -10z m385 -5 c19 -22 8 -25 -12 -3 -10 10 -14 18 -9
18 5 0 14 -7 21 -15z m35 5 c3 -5 1 -10 -4 -10 -6 0 -11 5 -11 10 0 6 2 10 4
10 3 0 8 -4 11 -10z m115 -5 c7 -8 8 -15 2 -15 -5 0 -15 7 -22 15 -7 8 -8 15
-2 15 5 0 15 -7 22 -15z m228 -6 c-19 -12 -25 -11 -25 5 0 8 8 11 20 8 14 -4
16 -7 5 -13z m93 -8 c15 -6 18 -10 8 -10 -9 -1 -25 7 -36 17 -10 9 -14 14 -8
10 6 -4 22 -12 36 -17z m-881 -11 c0 -15 -5 -12 -26 11 -19 22 -19 22 4 10 12
-6 22 -16 22 -21z m311 13 c13 -16 12 -17 -3 -4 -17 13 -22 21 -14 21 2 0 10
-8 17 -17z m349 7 c8 -5 11 -12 7 -17 -5 -4 -12 -1 -16 6 -5 8 -14 10 -21 6
-9 -5 -11 -4 -6 3 9 14 16 15 36 2z m-1230 -4 c0 -2 -7 -7 -16 -10 -8 -3 -12
-2 -9 4 6 10 25 14 25 6z m290 -6 c0 -5 -2 -10 -4 -10 -3 0 -8 5 -11 10 -3 6
-1 10 4 10 6 0 11 -4 11 -10z m740 -4 c0 -3 -4 -8 -10 -11 -5 -3 -10 -1 -10 4
0 6 5 11 10 11 6 0 10 -2 10 -4z m146 -11 c9 -8 11 -15 6 -15 -5 0 -15 7 -22
15 -7 8 -9 15 -6 15 4 0 14 -7 22 -15z m-1062 -30 c-19 -14 -34 -11 -34 6 0 5
9 9 20 9 11 0 20 6 21 13 0 9 2 9 6 -1 3 -7 -3 -19 -13 -27z m749 2 c-3 -4 -6
-7 -7 -5 -1 2 -8 12 -16 22 -14 18 -14 18 7 6 12 -8 19 -18 16 -23z m572 17
c23 -6 41 -31 30 -42 -3 -3 -5 -1 -5 5 0 6 -18 18 -40 27 -22 9 -40 19 -40 22
0 3 7 3 16 0 9 -3 26 -9 39 -12z m-808 -16 c-3 -8 -6 -5 -6 6 -1 11 2 17 5 13
3 -3 4 -12 1 -19z m484 -1 c-10 -9 -11 -8 -5 6 3 10 9 15 12 12 3 -3 0 -11 -7
-18z m-1396 3 c3 -5 1 -10 -4 -10 -6 0 -11 5 -11 10 0 6 2 10 4 10 3 0 8 -4
11 -10z m45 0 c0 -5 -2 -10 -4 -10 -3 0 -8 5 -11 10 -3 6 -1 10 4 10 6 0 11
-4 11 -10z m177 -12 c-3 -8 -6 -5 -6 6 -1 11 2 17 5 13 3 -3 4 -12 1 -19z
m1623 12 c0 -5 -4 -10 -9 -10 -6 0 -13 5 -16 10 -3 6 1 10 9 10 9 0 16 -4 16
-10z m-1280 -10 c13 -9 13 -11 0 -20 -11 -7 -16 -5 -18 5 -2 7 -11 16 -20 18
-14 4 -13 5 3 6 11 0 27 -4 35 -9z m908 -8 c2 -7 -2 -10 -12 -6 -9 3 -16 11
-16 16 0 13 23 5 28 -10z m-1495 -6 c4 -10 1 -13 -9 -9 -15 6 -19 23 -5 23 5
0 11 -7 14 -14z m127 4 c0 -5 -5 -10 -11 -10 -5 0 -7 5 -4 10 3 6 8 10 11 10
2 0 4 -4 4 -10z m600 0 c0 -5 -4 -10 -10 -10 -5 0 -10 5 -10 10 0 6 5 10 10
10 6 0 10 -4 10 -10z m150 0 c0 -5 -4 -10 -10 -10 -5 0 -10 5 -10 10 0 6 5 10
10 10 6 0 10 -4 10 -10z m101 -23 c-8 -8 -11 -7 -11 4 0 9 3 19 7 23 4 4 9 2
11 -4 3 -7 -1 -17 -7 -23z m349 -5 c0 -13 -3 -12 -15 4 -19 25 -19 40 0 24 8
-7 15 -20 15 -28z m183 2 c-15 -10 -15 -12 2 -21 12 -7 14 -13 6 -17 -6 -4
-11 -3 -11 3 0 6 -14 18 -30 26 -17 9 -28 20 -25 25 4 7 13 6 25 0 26 -14 30
-13 30 8 0 14 2 14 9 3 7 -10 4 -19 -6 -27z m107 26 c0 -5 -2 -10 -4 -10 -3 0
-8 5 -11 10 -3 6 -1 10 4 10 6 0 11 -4 11 -10z m-590 -36 c0 -21 -26 -6 -27
17 -2 17 1 18 13 9 8 -7 14 -19 14 -26z m261 14 c11 -21 11 -22 -4 -9 -10 7
-17 17 -17 22 0 15 9 10 21 -13z m146 15 c-4 -3 -2 -12 5 -20 8 -11 7 -12 -6
-7 -9 3 -16 9 -16 13 0 9 11 21 18 21 3 0 2 -3 -1 -7z m422 -42 l26 -23 -39
20 c-21 11 -45 18 -53 15 -13 -5 -13 -3 -3 16 12 24 14 24 69 -28z m78 -7 c-2
-3 -17 1 -33 7 -16 7 -31 12 -35 11 -3 0 -10 7 -16 17 -10 15 -4 14 38 -7 28
-13 48 -26 46 -28z m-2002 -6 c-1 -24 -5 -53 -9 -65 -4 -13 -3 -23 2 -23 6 0
8 -8 5 -18 -2 -10 3 -45 12 -78 9 -32 21 -78 27 -101 10 -43 22 -54 31 -30 3
7 6 5 6 -5 1 -10 -4 -18 -11 -18 -7 0 -5 -6 4 -17 9 -10 19 -28 23 -41 3 -12
11 -19 17 -16 10 6 78 -53 78 -69 0 -5 -12 1 -26 12 -15 12 -35 21 -45 21 -27
0 -52 29 -88 101 -60 124 -72 181 -48 220 10 17 9 22 -5 30 -13 7 -15 18 -11
47 13 96 42 134 38 50z m381 39 c19 7 18 -11 -1 -27 -18 -15 -20 -13 -30 20
-6 20 -5 22 5 13 7 -6 19 -9 26 -6z m824 -11 c0 -2 -9 -2 -20 1 -11 3 -20 9
-20 15 0 5 9 4 20 -2 11 -6 20 -12 20 -14z m418 14 c-2 -5 11 -21 27 -35 20
-17 23 -23 9 -16 -12 6 -24 8 -28 6 -3 -3 -4 -2 -1 1 2 4 -3 13 -11 21 -8 8
-12 19 -9 24 8 12 16 12 13 -1z m-1072 -9 c-4 -5 0 -12 6 -14 7 -3 0 -6 -16
-6 -24 -1 -27 1 -16 14 13 16 35 21 26 6z m377 -8 c9 -2 17 2 17 9 0 6 8 1 19
-10 10 -12 20 -20 22 -18 2 3 5 -8 6 -22 l1 -27 -19 24 c-10 13 -19 19 -19 15
0 -5 -4 -3 -9 4 -7 12 -24 18 -53 21 -5 1 -8 6 -8 12 0 6 5 7 13 2 6 -4 20 -9
30 -10z m-687 -4 c4 -8 9 -7 16 2 7 11 8 9 4 -4 -3 -10 -6 -23 -6 -29 0 -7 -5
-7 -13 1 -8 6 -17 8 -20 5 -3 -4 -5 3 -4 15 1 23 12 27 23 10z m544 -4 c0 -12
-19 -12 -23 0 -4 9 -1 12 9 8 7 -3 14 -7 14 -8z m704 -1 c9 -3 16 -12 16 -19
0 -7 14 -25 31 -39 17 -14 27 -26 22 -26 -4 0 0 -5 9 -10 9 -6 24 -24 32 -41
13 -25 13 -29 1 -19 -8 6 -17 20 -20 31 -4 11 -11 17 -16 14 -5 -4 -9 -1 -9 4
0 6 -9 10 -21 8 -13 -1 -27 7 -37 23 l-16 25 27 -24 c39 -35 33 -12 -8 33 -43
47 -45 53 -11 40z m294 -19 c-3 -3 -9 2 -12 12 -6 14 -5 15 5 6 7 -7 10 -15 7
-18z m-1318 5 c0 -5 -4 -10 -10 -10 -5 0 -10 5 -10 10 0 6 5 10 10 10 6 0 10
-4 10 -10z m173 -5 c4 -8 2 -17 -3 -20 -6 -4 -10 2 -10 12 0 15 -2 16 -10 3
-5 -8 -12 -11 -17 -7 -4 5 -1 12 7 17 21 13 27 12 33 -5z m917 -37 c0 -17 -10
-6 -25 25 l-16 32 20 -25 c11 -14 21 -28 21 -32z m323 38 c31 -9 36 -21 8 -23
-11 -1 -22 5 -25 13 -4 9 -13 13 -23 10 -10 -3 -24 -2 -32 3 -16 11 30 8 72
-3z m-1354 -33 c6 -14 10 -27 8 -29 -8 -9 -47 29 -47 46 0 26 24 16 39 -17z
m52 15 c24 -11 38 -23 32 -25 -12 -4 -83 33 -83 43 0 6 4 5 51 -18z m116 2 c1
-11 -2 -20 -8 -20 -5 0 -9 9 -9 20 0 11 4 20 8 20 4 0 8 -9 9 -20z m136 5 c-3
-9 -8 -14 -10 -11 -3 3 -2 9 2 15 9 16 15 13 8 -4z m325 -6 c3 -12 2 -12 -6 0
-6 8 -15 10 -22 6 -9 -5 -11 -4 -6 4 10 15 28 10 34 -10z m72 5 c0 -8 -4 -12
-10 -9 -5 3 -10 10 -10 16 0 5 5 9 10 9 6 0 10 -7 10 -16z m-1060 -20 c0 -8
-10 -14 -25 -14 -16 0 -25 -6 -25 -15 0 -8 5 -15 10 -15 6 0 10 5 10 10 0 6 6
10 13 10 7 0 23 9 35 20 11 11 23 16 26 11 3 -5 -1 -14 -9 -21 -8 -7 -15 -9
-15 -6 0 4 -7 1 -15 -8 -8 -8 -15 -24 -15 -35 0 -12 -4 -21 -10 -21 -5 0 -7 7
-4 15 4 8 1 15 -5 15 -6 0 -11 -6 -12 -12 -1 -18 -17 23 -18 45 -1 11 6 17 19
17 11 0 20 7 20 16 0 8 5 12 10 9 6 -3 10 -13 10 -21z m232 6 c-7 -29 34 -46
66 -26 7 4 22 0 34 -10 13 -9 16 -14 7 -11 -9 3 -33 2 -53 -3 -29 -6 -39 -5
-43 7 -3 9 -14 13 -25 10 -15 -4 -18 -1 -13 14 6 18 5 19 -14 7 -12 -7 -21
-19 -21 -27 0 -11 -3 -12 -11 -4 -9 9 -8 15 2 26 35 34 77 45 71 17z m865 -17
c-3 -10 -5 -4 -5 12 0 17 2 24 5 18 2 -7 2 -21 0 -30z m68 27 c3 -5 -3 -10
-14 -10 -12 0 -21 5 -21 10 0 6 6 10 14 10 8 0 18 -4 21 -10z m75 0 c0 -5 -2
-10 -4 -10 -3 0 -8 5 -11 10 -3 6 -1 10 4 10 6 0 11 -4 11 -10z m590 0 c0 -5
-2 -10 -4 -10 -3 0 -8 5 -11 10 -3 6 -1 10 4 10 6 0 11 -4 11 -10z m-370 -10
c0 -5 -4 -10 -10 -10 -5 0 -10 5 -10 10 0 6 5 10 10 10 6 0 10 -4 10 -10z
m-240 -18 c0 -4 -9 -8 -21 -9 -17 -2 -18 1 -9 12 12 14 30 12 30 -3z m339 -16
c-3 -3 -11 5 -18 17 -13 21 -12 21 5 5 10 -10 16 -20 13 -22z m-548 1 c-10 -9
-11 -8 -5 6 3 10 9 15 12 12 3 -3 0 -11 -7 -18z m-596 3 c8 -13 -5 -13 -25 0
-13 8 -13 10 2 10 9 0 20 -4 23 -10z m115 -51 c0 -17 -8 -9 -29 29 l-22 37 26
-28 c14 -15 25 -32 25 -38z m270 16 c0 -15 -18 -1 -29 23 l-13 27 21 -22 c12
-12 21 -25 21 -28z m153 2 c5 -31 3 -36 -7 -28 -7 6 -11 23 -8 41 5 38 8 36
15 -13z m227 0 c0 -16 -18 3 -23 25 -6 22 -5 22 8 4 8 -11 15 -24 15 -29z m63
26 c-7 -3 -9 -11 -6 -19 3 -7 8 -12 12 -9 4 2 14 -11 21 -30 12 -29 16 -33 29
-22 14 10 14 10 3 -5 -16 -20 -8 -54 13 -62 8 -3 15 -15 15 -26 0 -11 4 -20
10 -20 5 0 7 7 4 15 -4 8 -1 15 4 15 6 0 16 -16 23 -34 7 -20 17 -32 23 -29 6
3 8 3 4 -2 -4 -4 0 -21 8 -37 14 -28 14 -29 -3 -26 -11 2 -17 11 -15 21 2 10
-3 16 -10 15 -7 -2 -12 5 -12 14 1 10 -4 14 -13 11 -10 -4 -11 -9 -4 -16 14
-14 14 -27 -1 -27 -6 0 -8 3 -5 7 4 3 2 12 -4 20 -9 10 -8 17 2 30 10 12 10
15 1 9 -8 -5 -15 1 -21 15 l-8 23 -11 -21 c-13 -24 -6 -56 11 -46 6 4 7 1 2
-7 -4 -7 -2 -16 6 -20 10 -7 10 -12 -2 -26 -8 -11 -9 -15 -2 -10 9 5 11 2 7
-7 -3 -8 -1 -18 4 -21 6 -3 8 -15 5 -26 -7 -26 -23 -16 -23 15 0 15 -7 26 -20
30 -11 3 -20 14 -20 23 0 12 -3 13 -8 5 -5 -9 -13 -1 -24 22 -8 19 -11 32 -5
28 7 -4 8 1 3 13 -4 10 -12 38 -19 62 -6 24 -17 42 -25 42 -12 0 -12 -3 -2
-15 7 -8 8 -15 3 -15 -5 0 -15 11 -21 24 -10 22 -9 24 10 21 17 -4 19 0 14 23
-5 22 -4 24 4 10 19 -32 34 -15 20 22 -1 3 -2 9 -1 14 1 5 -4 13 -11 17 -10 7
-9 9 5 9 9 0 17 5 17 11 0 5 5 7 12 3 9 -6 9 -9 1 -11z m211 -8 c-3 -7 -12
-11 -20 -8 -11 4 -12 9 -3 19 14 17 30 9 23 -11z m180 9 c6 -15 4 -15 -11 -3
-10 7 -20 15 -22 16 -2 2 3 3 11 3 9 0 19 -7 22 -16z m149 1 c4 -8 1 -17 -6
-21 -7 -4 -9 -4 -5 1 4 4 3 14 -3 22 -7 8 -8 13 -1 13 5 0 12 -7 15 -15z
m-1674 -12 c12 3 21 1 21 -4 0 -5 -5 -9 -11 -9 -5 0 -7 -4 -4 -10 3 -5 0 -16
-7 -23 -11 -12 -19 -12 -56 0 -39 14 -55 42 -20 35 9 -1 21 5 28 13 10 12 15
13 21 4 4 -7 16 -9 28 -6z m636 7 c3 -5 1 -10 -4 -10 -6 0 -11 5 -11 10 0 6 2
10 4 10 3 0 8 -4 11 -10z m592 -15 c35 -21 51 -47 34 -53 -6 -2 -11 -8 -11
-13 0 -6 4 -8 10 -4 5 3 18 0 29 -7 17 -11 19 -18 12 -68 -1 -2 -8 5 -16 17
-8 12 -13 27 -12 35 2 7 2 9 -1 5 -5 -9 -42 21 -42 35 0 4 8 8 17 8 11 0 1 12
-25 31 -23 17 -42 33 -42 36 0 6 6 3 47 -22z m378 4 c3 6 1 11 -6 11 -7 0 -10
3 -6 6 3 3 11 3 17 -1 8 -5 8 -11 -1 -21 -16 -20 -26 -18 -40 9 -12 22 -12 22
9 4 13 -12 22 -15 27 -8z m177 -33 c7 4 8 3 4 -4 -4 -7 -10 -12 -14 -12 -11 0
-62 50 -62 61 0 5 14 -4 30 -21 17 -17 35 -28 42 -24z m-1188 28 c3 -8 2 -12
-4 -9 -6 3 -10 10 -10 16 0 14 7 11 14 -7z m460 -34 l7 -25 -15 25 c-9 14 -15
32 -15 40 0 13 1 13 8 0 5 -8 12 -26 15 -40z m-44 15 c0 -7 7 -15 15 -19 8 -3
14 -9 13 -13 -3 -14 13 -67 27 -94 22 -40 36 -81 26 -75 -4 3 -14 19 -21 36
-9 23 -15 28 -21 18 -12 -19 -11 -30 3 -22 8 5 9 2 5 -9 -3 -9 0 -23 8 -31 8
-8 15 -19 15 -24 0 -6 3 -12 8 -14 4 -1 20 -28 36 -58 16 -30 37 -61 47 -67
12 -9 16 -22 13 -42 -3 -16 0 -32 6 -36 15 -9 12 -25 -4 -19 -8 3 -22 29 -31
57 -27 85 -26 85 -36 62 -7 -16 -8 -14 -4 8 4 19 2 26 -5 22 -5 -3 -11 0 -12
7 0 7 -2 18 -2 23 -1 6 -11 23 -23 38 -15 19 -23 23 -27 15 -4 -7 -4 -3 -2 10
2 12 0 22 -6 22 -5 0 -7 3 -4 8 7 11 -23 47 -31 37 -5 -4 -2 -10 5 -12 6 -3
12 -14 12 -26 0 -36 23 -88 37 -82 11 3 11 0 2 -16 -8 -15 -8 -19 0 -15 13 8
14 -4 2 -23 -10 -15 -15 -8 -25 32 -4 18 -11 25 -19 21 -7 -4 -9 -4 -5 1 4 4
2 15 -4 23 -7 8 -13 45 -13 86 0 70 0 71 -27 74 -17 2 -28 9 -28 18 0 9 5 12
12 8 7 -5 9 -2 6 8 -4 8 -3 21 2 28 5 9 10 3 15 -18 3 -17 13 -33 21 -36 8 -3
14 -15 14 -26 0 -12 4 -19 9 -16 5 4 12 0 14 -6 3 -7 5 -1 4 14 -1 15 -4 25
-8 22 -12 -7 -18 23 -7 34 7 7 6 16 -1 29 -11 16 -11 15 -5 -7 6 -24 6 -24
-10 -5 -17 22 -22 80 -6 70 6 -3 10 -12 10 -20z m390 4 c21 -17 22 -19 3 -10
-27 14 -53 14 -53 1 0 -5 9 -10 19 -10 10 0 21 -6 24 -14 4 -11 0 -13 -15 -11
-31 6 -41 20 -33 44 8 26 23 26 55 0z m-1135 1 c-3 -5 -10 -10 -16 -10 -5 0
-9 5 -9 10 0 6 7 10 16 10 8 0 12 -4 9 -10z m115 -5 c7 -9 8 -15 2 -15 -5 0
-12 7 -16 15 -3 8 -4 15 -2 15 2 0 9 -7 16 -15z m338 -10 c-3 -3 -9 2 -12 12
-6 14 -5 15 5 6 7 -7 10 -15 7 -18z m186 -15 c-5 -5 -10 3 -11 18 -1 22 0 24
9 8 6 -10 6 -22 2 -26z m745 26 c10 -12 8 -13 -8 -9 -12 3 -21 9 -21 14 0 14
16 11 29 -5z m-1124 -6 c3 -6 -1 -7 -9 -4 -18 7 -21 14 -7 14 6 0 13 -4 16
-10z m988 -12 c13 -19 2 -49 -15 -42 -7 2 -22 17 -33 32 l-20 27 30 -23 c18
-15 31 -19 33 -12 2 6 -4 18 -14 26 -12 10 -14 14 -5 12 8 -3 19 -11 24 -20z
m-1351 -3 c7 3 22 -1 33 -9 11 -9 15 -16 8 -16 -6 0 -15 5 -18 10 -11 18 -23
11 -18 -10 5 -18 2 -19 -28 -15 -32 5 -33 5 -9 -6 14 -7 32 -12 41 -13 10 -1
31 -13 48 -28 36 -33 41 -34 41 -11 0 14 2 14 20 -2 11 -10 20 -21 20 -24 0
-11 -57 -6 -72 7 -9 7 -20 12 -24 11 -23 -4 -36 2 -31 15 4 10 1 13 -8 10 -8
-3 -17 -14 -20 -25 -15 -45 -85 3 -85 59 0 32 -1 33 -30 27 -20 -4 -30 -3 -30
5 0 7 6 10 14 7 8 -3 16 -2 18 2 2 4 20 6 42 3 26 -3 34 -7 25 -13 -10 -6 -5
-8 16 -8 17 0 24 3 18 6 -7 2 -13 12 -13 20 0 12 3 13 14 4 7 -6 20 -9 28 -6z
m786 -10 c-3 -3 -9 2 -12 12 -6 14 -5 15 5 6 7 -7 10 -15 7 -18z m-695 -9 c4
-10 1 -13 -8 -9 -8 3 -12 9 -9 14 7 12 11 11 17 -5z m110 7 c-7 -2 -19 -2 -25
0 -7 3 -2 5 12 5 14 0 19 -2 13 -5z m1333 -20 c-7 -7 -26 7 -26 19 0 6 6 6 15
-2 9 -7 13 -15 11 -17z m49 17 c3 -5 -1 -10 -10 -10 -9 0 -13 5 -10 10 3 6 8
10 10 10 2 0 7 -4 10 -10z m-1287 -12 c17 -17 15 -28 -6 -28 -11 0 -18 7 -18
20 0 23 7 25 24 8z m878 -20 l19 -23 -25 20 c-14 11 -27 21 -29 22 -2 2 0 3 6
3 5 0 18 -10 29 -22z m-1367 -29 c-20 -12 -22 -4 -7 20 11 18 14 19 16 5 2 -9
-2 -20 -9 -25z m71 10 c-12 -8 -9 -15 19 -39 19 -16 32 -32 30 -35 -3 -2 -23
12 -45 32 -24 22 -34 38 -26 40 6 3 12 12 12 21 0 13 3 13 12 4 10 -10 10 -15
-2 -23z m1190 12 c6 -13 6 -22 1 -26 -9 -5 -31 24 -31 39 0 14 20 4 30 -13z
m-940 -1 c0 -5 -2 -10 -4 -10 -3 0 -8 5 -11 10 -3 6 -1 10 4 10 6 0 11 -4 11
-10z m72 -20 c3 -18 0 -29 -5 -27 -13 4 -21 57 -8 57 5 0 11 -14 13 -30z m530
-15 c11 -20 11 -20 -11 -1 -14 13 -21 15 -21 6 0 -7 -2 -11 -5 -9 -2 3 -2 15
2 28 6 24 10 21 35 -24z m871 30 c-3 -9 -8 -14 -10 -11 -3 3 -2 9 2 15 9 16
15 13 8 -4z m-1333 -15 c0 -4 -7 -10 -15 -14 -8 -3 -15 -12 -15 -21 0 -8 -5
-15 -11 -15 -7 0 -5 10 5 25 9 14 14 30 11 35 -3 6 1 7 9 4 9 -3 16 -10 16
-14z m1381 3 c13 -17 13 -17 -6 -3 -11 8 -22 16 -24 17 -2 2 0 3 6 3 6 0 17
-8 24 -17z m-1954 -18 c-12 -25 -39 -35 -34 -12 1 9 31 34 44 37 0 0 -4 -11
-10 -25z m473 9 c0 -2 -7 -4 -15 -4 -8 0 -15 4 -15 10 0 5 7 7 15 4 8 -4 15
-8 15 -10z m153 -27 l6 -22 -19 23 c-22 27 -28 28 -32 2 -2 -14 -7 -17 -17
-10 -12 7 -11 12 10 28 27 22 43 16 52 -21z m341 4 c1 -17 -1 -31 -6 -31 -4 0
-8 17 -8 37 0 43 11 38 14 -6z m579 31 c3 7 6 3 6 -10 1 -13 5 -21 10 -17 5 3
13 0 17 -6 4 -8 3 -9 -4 -5 -21 13 -13 -8 13 -37 14 -15 22 -27 17 -27 -5 0
-23 20 -41 45 -18 25 -36 45 -42 45 -5 0 -9 5 -9 11 0 8 4 8 14 0 11 -9 15 -9
19 1z m91 -29 c3 -7 3 -13 1 -13 -9 0 -45 34 -45 42 0 12 39 -14 44 -29z m56
12 c0 -9 6 -12 15 -9 8 4 15 2 15 -4 0 -11 -18 -11 -37 1 -15 10 -17 27 -3 27
6 0 10 -7 10 -15z m94 -1 c3 -8 2 -12 -4 -9 -6 3 -10 10 -10 16 0 14 7 11 14
-7z m185 -37 c1 -12 -47 23 -53 39 -4 10 4 7 23 -8 17 -13 30 -26 30 -31z m26
43 c3 -5 1 -10 -4 -10 -6 0 -11 5 -11 10 0 6 2 10 4 10 3 0 8 -4 11 -10z
m-1095 -11 c0 -6 7 -9 15 -5 8 3 15 1 15 -4 0 -6 -10 -10 -23 -10 -14 0 -24 6
-24 15 0 8 4 15 9 15 4 0 8 -5 8 -11z m538 -19 c6 0 14 -5 18 -12 11 -18 13
-58 2 -58 -5 0 -7 8 -3 19 3 10 -1 24 -10 31 -8 7 -15 9 -15 4 0 -4 -7 1 -15
12 -8 10 -14 24 -14 29 0 6 6 2 13 -7 7 -10 18 -18 24 -18z m47 -28 c-8 -8
-26 39 -19 50 5 8 11 1 16 -17 4 -16 6 -31 3 -33z m-395 38 c0 -5 -4 -10 -10
-10 -5 0 -10 5 -10 10 0 6 5 10 10 10 6 0 10 -4 10 -10z m823 -14 c14 -14 22
-27 20 -30 -3 -3 2 -17 11 -31 17 -25 17 -26 -4 -13 -19 12 -36 44 -32 61 1 4
-2 7 -7 7 -5 0 -11 7 -15 15 -8 21 -1 19 27 -9z m-1663 -89 c7 -15 25 -41 40
-57 15 -16 25 -32 22 -35 -10 -10 -21 -5 -27 14 -3 11 -12 21 -19 24 -10 4
-10 -4 2 -39 16 -50 11 -65 -15 -42 -10 8 -26 18 -37 22 -15 5 -17 13 -13 41
4 26 2 35 -8 35 -10 0 -12 -10 -9 -35 2 -19 0 -35 -5 -35 -5 0 -12 -8 -14 -17
-3 -10 -2 5 0 32 7 60 19 81 40 64 8 -7 12 -18 9 -25 -3 -7 2 -15 10 -18 8 -3
12 -1 9 4 -3 5 -2 18 3 27 12 23 5 43 -14 36 -9 -3 -14 2 -14 16 0 12 -13 35
-30 51 -46 45 -36 48 14 4 24 -22 49 -52 56 -67z m440 99 c0 -2 -7 -7 -16 -10
-8 -3 -12 -2 -9 4 6 10 25 14 25 6z m190 -32 c0 -8 -4 -12 -10 -9 -5 3 -10 13
-10 21 0 8 5 12 10 9 6 -3 10 -13 10 -21z m671 -10 c5 -15 8 -29 5 -31 -2 -2
-8 10 -14 26 -13 38 -5 41 9 5z m189 22 c0 -3 -4 -8 -10 -11 -5 -3 -10 -1 -10
4 0 6 5 11 10 11 6 0 10 -2 10 -4z m76 -17 c19 -22 19 -22 -3 -10 -13 6 -23
16 -23 21 0 15 5 12 26 -11z m-1526 -21 c0 -5 -7 -3 -15 6 -8 8 -15 18 -15 22
0 3 7 1 15 -6 8 -7 15 -17 15 -22z m180 5 c0 -25 -1 -26 -16 -11 -9 9 -13 21
-10 27 13 20 26 11 26 -16z m650 -17 c0 -26 -6 -18 -14 19 -5 22 -4 26 4 15 5
-8 10 -24 10 -34z m409 17 c8 -15 8 -23 1 -23 -5 0 -10 7 -10 16 0 8 -5 12
-10 9 -6 -4 -8 -11 -5 -16 4 -5 1 -9 -4 -9 -15 0 -14 18 2 34 6 8 13 13 13 12
1 0 7 -11 13 -23z m95 11 c3 -8 10 -12 16 -9 6 3 7 -1 4 -10 -4 -9 0 -23 9
-33 20 -23 29 -74 16 -92 -8 -12 -10 -10 -5 9 3 14 0 31 -6 38 -6 7 -8 13 -4
13 3 0 -8 23 -24 50 -16 28 -26 50 -21 50 5 0 12 -7 15 -16z m-1312 -26 c-8
-8 -9 -4 -5 13 4 13 8 18 11 10 2 -7 -1 -18 -6 -23z m36 1 c-1 -17 -4 -25 -8
-18 -7 10 -2 49 5 49 2 0 3 -14 3 -31z m85 -32 c-3 -5 -13 4 -23 20 -9 15 -15
32 -13 36 3 5 13 -4 23 -20 9 -15 15 -32 13 -36z m545 44 c3 -8 -1 -12 -9 -9
-7 2 -15 10 -17 17 -3 8 1 12 9 9 7 -2 15 -10 17 -17z m122 -56 c16 -52 28
-74 37 -71 7 3 13 1 13 -4 0 -6 -4 -10 -9 -10 -4 0 -13 -15 -19 -32 l-11 -33
5 33 c4 23 2 32 -6 30 -7 -2 -15 3 -18 11 -3 9 0 11 8 6 10 -6 11 -4 5 11 -19
46 -45 119 -45 126 0 5 4 8 8 8 5 0 19 -34 32 -75z m610 55 c9 -16 8 -18 -5
-14 -8 4 -15 12 -15 20 0 20 7 17 20 -6z m-868 -12 c-7 -7 -12 -8 -12 -2 0 6
3 14 7 17 3 4 9 5 12 2 2 -3 -1 -11 -7 -17z m85 16 c-3 -3 -12 -4 -19 -1 -8 3
-5 6 6 6 11 1 17 -2 13 -5z m-792 -14 c-3 -5 -12 -10 -18 -10 -7 0 -6 4 3 10
19 12 23 12 15 0z m480 0 c3 -5 1 -10 -4 -10 -6 0 -11 5 -11 10 0 6 2 10 4 10
3 0 8 -4 11 -10z m-437 -12 c7 -7 12 -16 12 -20 0 -15 -15 -8 -28 12 -13 22
-3 27 16 8z m98 -5 c20 -27 16 -35 -6 -13 -11 11 -20 22 -20 25 0 11 13 4 26
-12z m372 -18 c-3 -3 -9 2 -12 12 -6 14 -5 15 5 6 7 -7 10 -15 7 -18z m326 1
c7 -28 -2 -58 -15 -50 -5 3 -9 0 -9 -5 0 -6 7 -11 15 -11 8 0 15 7 15 16 0 8
5 12 10 9 6 -3 10 0 10 7 0 7 9 -2 20 -20 11 -18 20 -39 20 -47 0 -26 -18 -16
-29 16 -9 28 -12 29 -26 16 -15 -16 -12 -40 10 -67 19 -23 30 -64 15 -55 -8 5
-11 4 -7 -3 5 -6 -1 -6 -17 1 -18 9 -22 15 -14 24 7 9 7 13 -1 13 -7 0 -9 5
-6 10 8 14 -4 52 -15 45 -5 -3 -11 3 -15 14 -3 10 -14 29 -25 41 -25 28 -27
65 -4 56 9 -3 22 -6 30 -6 8 0 14 -4 14 -10 0 -5 -7 -10 -16 -10 -8 0 -12 -5
-9 -10 5 -8 11 -8 19 -1 7 6 16 8 20 4 4 -4 3 5 -3 20 -6 15 -7 27 -2 27 5 0
12 -11 15 -24z m33 18 c-3 -3 -12 -4 -19 -1 -8 3 -5 6 6 6 11 1 17 -2 13 -5z
m593 -4 c0 -5 -5 -10 -11 -10 -5 0 -7 5 -4 10 3 6 8 10 11 10 2 0 4 -4 4 -10z
m174 -6 c3 -8 10 -13 15 -9 5 3 12 1 16 -5 11 -18 -22 -10 -40 10 -10 11 -13
20 -8 20 6 0 14 -7 17 -16z m133 -16 c2 -30 1 -31 -7 -10 -6 13 -8 28 -4 33 8
14 10 11 11 -23z m-417 12 c0 -6 9 -21 20 -32 22 -23 13 -38 -24 -38 -12 0
-16 -5 -12 -15 10 -26 -8 -16 -25 13 -13 23 -13 29 -3 29 8 0 14 -7 14 -15 0
-11 3 -12 13 -3 8 6 17 8 20 4 13 -13 7 14 -8 33 -17 23 -19 34 -5 34 6 0 10
-5 10 -10z m-1332 -19 c3 -8 -1 -12 -9 -9 -7 2 -15 10 -17 17 -3 8 1 12 9 9 7
-2 15 -10 17 -17z m852 9 c0 -5 -5 -10 -11 -10 -5 0 -7 5 -4 10 3 6 8 10 11
10 2 0 4 -4 4 -10z m-636 -17 c6 -14 9 -15 15 -4 6 10 10 9 14 -4 5 -11 3 -14
-5 -9 -8 5 -9 2 -5 -9 3 -10 3 -25 0 -34 -6 -15 -8 -14 -13 6 -3 14 -11 26
-18 29 -16 5 -6 -42 16 -75 7 -12 12 -27 10 -34 -2 -6 -16 13 -31 43 -24 47
-26 57 -15 81 15 31 23 34 32 10z m481 0 c16 -13 17 -15 3 -10 -10 4 -18 2
-18 -4 0 -6 -4 -7 -10 -4 -12 7 -14 35 -2 35 4 0 16 -8 27 -17z m695 7 c0 -5
-4 -10 -10 -10 -5 0 -10 5 -10 10 0 6 5 10 10 10 6 0 10 -4 10 -10z m27 -12
c-3 -8 -6 -5 -6 6 -1 11 2 17 5 13 3 -3 4 -12 1 -19z m139 8 c18 -18 18 -23
-1 -23 -8 0 -12 4 -9 9 3 4 0 8 -5 8 -6 0 -11 5 -11 10 0 14 9 12 26 -4z m239
4 c-3 -5 -12 -10 -18 -10 -7 0 -6 4 3 10 19 12 23 12 15 0z m-2105 -15 c-7 -9
-15 -13 -19 -10 -3 3 1 10 9 15 21 14 24 12 10 -5z m490 11 c0 -3 -4 -8 -10
-11 -5 -3 -10 -1 -10 4 0 6 5 11 10 11 6 0 10 -2 10 -4z m725 -6 c3 -5 1 -10
-4 -10 -6 0 -11 5 -11 10 0 6 2 10 4 10 3 0 8 -4 11 -10z m350 -20 l20 -25
-22 19 c-13 11 -23 24 -23 29 0 6 1 8 3 6 1 -2 11 -15 22 -29z m213 -6 c4 2 8
-7 8 -20 2 -20 -1 -23 -12 -13 -8 6 -14 19 -15 28 0 12 -2 11 -9 -4 -8 -20 -9
-20 -9 1 -1 28 11 38 22 19 4 -8 11 -14 15 -11z m246 10 c3 -8 2 -12 -4 -9 -6
3 -10 10 -10 16 0 14 7 11 14 -7z m-1077 -1 c-4 -3 2 -12 12 -19 21 -15 36
-63 23 -76 -4 -4 -21 5 -37 22 -16 16 -25 33 -21 37 4 5 19 -5 33 -22 l25 -30
-16 32 c-9 17 -20 35 -26 38 -10 6 -5 25 7 25 4 0 3 -3 0 -7z m314 -125 c5
-10 9 -24 9 -32 0 -8 5 -18 12 -22 8 -5 9 -2 5 9 -8 22 -3 21 19 0 17 -17 17
-17 10 7 -11 37 -14 100 -5 100 4 0 11 -9 14 -20 4 -11 11 -18 16 -15 5 4 9 2
9 -4 0 -5 3 -18 6 -28 6 -15 4 -16 -7 -5 -19 18 -28 15 -22 -8 3 -11 9 -20 13
-20 5 0 12 -9 15 -20 4 -11 11 -18 16 -15 5 4 9 0 9 -8 0 -23 -38 -28 -45 -6
-6 18 -20 23 -56 20 -15 -2 -39 55 -39 92 0 9 -4 18 -9 21 -4 3 -6 -7 -4 -22
2 -15 -6 -2 -17 28 -22 62 -24 72 -10 50 8 -12 10 -12 10 5 1 11 10 -5 21 -35
11 -30 24 -63 30 -72z m207 110 c-3 -7 3 -26 13 -43 10 -16 23 -39 29 -50 10
-17 9 -18 -2 -4 -7 9 -23 19 -36 23 -12 4 -27 16 -32 27 -14 24 5 26 19 2 6
-10 11 -13 11 -7 0 6 -7 17 -15 24 -11 9 -12 15 -2 25 15 18 20 19 15 3z
m-555 -23 c-7 -21 -13 -19 -13 6 0 11 4 18 10 14 5 -3 7 -12 3 -20z m113 5 c8
0 14 -7 14 -15 0 -14 33 -38 42 -30 2 2 5 -10 6 -27 4 -47 19 -68 52 -68 15 0
30 5 32 12 9 26 25 -4 23 -42 -1 -22 1 -40 4 -40 3 0 11 -10 16 -22 6 -12 18
-23 28 -24 44 -6 32 -30 -14 -29 -35 0 -41 9 -54 89 -5 29 -9 36 -16 25 -7
-11 -9 -11 -9 4 0 10 -5 15 -10 12 -6 -3 -8 -18 -4 -33 4 -19 0 -16 -14 13
-22 46 -52 76 -53 54 0 -8 -4 -4 -9 9 -5 12 -16 22 -25 22 -8 0 -15 6 -15 13
0 25 -20 -18 -20 -45 0 -16 -4 -28 -8 -28 -4 0 -8 15 -8 34 0 19 3 33 7 30 10
-6 20 26 12 39 -3 7 5 2 19 -11 13 -12 27 -19 31 -16 8 9 -34 54 -50 54 -7 0
-13 6 -13 13 0 18 14 31 18 18 2 -6 10 -11 18 -11z m1029 10 c3 -5 1 -10 -4
-10 -6 0 -11 5 -11 10 0 6 2 10 4 10 3 0 8 -4 11 -10z m70 0 c3 -5 -1 -10 -10
-10 -9 0 -13 5 -10 10 3 6 8 10 10 10 2 0 7 -4 10 -10z m-1815 -21 c0 -6 -4
-7 -10 -4 -5 3 -10 11 -10 16 0 6 5 7 10 4 6 -3 10 -11 10 -16z m1375 11 c3
-5 1 -10 -4 -10 -6 0 -11 5 -11 10 0 6 2 10 4 10 3 0 8 -4 11 -10z m-615 -10
c0 -5 -2 -10 -4 -10 -3 0 -8 5 -11 10 -3 6 -1 10 4 10 6 0 11 -4 11 -10z m618
-58 c16 -5 15 -22 -1 -22 -8 0 -19 17 -25 39 -16 50 -14 66 2 22 7 -19 18 -37
24 -39z m259 20 c15 -16 18 -46 3 -37 -10 6 -40 71 -40 84 0 3 6 -3 12 -14 7
-11 18 -26 25 -33z m47 26 c-3 -4 -11 -5 -19 -1 -21 7 -19 12 4 10 11 0 18 -5
15 -9z m71 -19 c-4 -19 -1 -21 25 -15 18 3 30 1 30 -5 0 -6 -4 -7 -10 -4 -5 3
-10 2 -10 -3 0 -16 -45 -8 -45 8 0 8 -4 20 -7 26 -8 13 1 26 13 19 4 -3 6 -15
4 -26z m-338 -1 c-3 -8 -6 -5 -6 6 -1 11 2 17 5 13 3 -3 4 -12 1 -19z m-816
-19 c-5 -13 -10 -19 -10 -12 -1 15 10 45 15 40 3 -2 0 -15 -5 -28z m789 16 c0
-8 -2 -15 -4 -15 -2 0 -6 7 -10 15 -3 8 -1 15 4 15 6 0 10 -7 10 -15z m-890
-52 c0 -7 -2 -13 -5 -13 -6 0 -35 56 -35 67 1 13 40 -41 40 -54z m70 32 c-7
-9 -15 -13 -18 -10 -3 2 1 11 8 20 7 9 15 13 18 10 3 -2 -1 -11 -8 -20z m87
-22 c-11 -10 -35 11 -34 29 1 19 2 19 19 -3 10 -12 17 -24 15 -26z m579 6 c19
-31 28 -38 34 -28 7 11 10 10 16 -4 13 -34 -13 -43 -42 -14 -15 15 -24 27 -20
27 4 0 0 14 -9 30 -23 44 -9 37 21 -11z m284 23 c0 8 5 6 11 -4 5 -10 17 -15
27 -12 9 3 6 -1 -8 -9 -15 -10 -29 -12 -36 -6 -6 5 -13 7 -15 5 -2 -3 -10 7
-16 21 -12 24 -12 24 13 9 18 -12 24 -13 24 -4z m-1090 -2 c0 -5 -4 -10 -10
-10 -5 0 -10 5 -10 10 0 6 5 10 10 10 6 0 10 -4 10 -10z m460 -1 c0 -6 -4 -8
-9 -5 -5 4 -11 1 -13 -6 -3 -8 -6 -7 -10 3 -4 10 1 15 13 16 10 1 19 -3 19 -8z
m794 -5 c3 -8 2 -12 -4 -9 -6 3 -10 10 -10 16 0 14 7 11 14 -7z m46 -6 c0 -13
-23 -5 -28 10 -2 7 2 10 12 6 9 -3 16 -11 16 -16z m-1740 -9 c0 -6 -4 -7 -10
-4 -5 3 -10 11 -10 16 0 6 5 7 10 4 6 -3 10 -11 10 -16z m95 11 c3 -5 1 -10
-5 -10 -7 0 -9 -9 -5 -22 18 -63 18 -65 0 -40 -9 13 -15 26 -12 29 3 3 2 16
-3 29 -7 18 -6 24 5 24 7 0 17 -4 20 -10z m369 -6 c3 -8 2 -12 -4 -9 -6 3 -10
-1 -10 -9 0 -9 -4 -16 -10 -16 -6 0 -5 10 2 25 13 29 14 30 22 9z m986 5 c5 9
10 8 20 -4 11 -13 10 -14 -5 -8 -15 5 -17 3 -12 -12 6 -15 5 -16 -8 -5 -8 7
-15 20 -14 29 0 12 2 12 6 2 4 -10 7 -10 13 -2z m-1410 -15 c0 -8 -4 -12 -10
-9 -5 3 -10 10 -10 16 0 5 5 9 10 9 6 0 10 -7 10 -16z m367 -15 c1 -17 -2 -29
-8 -27 -6 2 -10 7 -10 11 1 4 1 16 1 27 0 32 15 23 17 -11z m700 9 c-3 -8 -6
-5 -6 6 -1 11 2 17 5 13 3 -3 4 -12 1 -19z m212 5 c6 -11 11 -13 11 -5 0 7 4
10 10 7 6 -4 5 -11 -3 -20 -10 -11 -15 -10 -29 6 -20 20 -22 29 -8 29 5 0 14
-8 19 -17z m291 7 c0 -5 -2 -10 -4 -10 -3 0 -8 5 -11 10 -3 6 -1 10 4 10 6 0
11 -4 11 -10z m-1325 -19 c-3 -6 -11 -11 -17 -11 -6 0 -6 6 2 15 14 17 26 13
15 -4z m253 -6 c-3 -3 -9 2 -12 12 -6 14 -5 15 5 6 7 -7 10 -15 7 -18z m879 3
c-3 -8 -6 -5 -6 6 -1 11 2 17 5 13 3 -3 4 -12 1 -19z m-782 2 c3 -5 1 -10 -4
-10 -6 0 -11 5 -11 10 0 6 2 10 4 10 3 0 8 -4 11 -10z m305 -10 c0 -5 -2 -10
-4 -10 -3 0 -8 5 -11 10 -3 6 -1 10 4 10 6 0 11 -4 11 -10z m310 -51 c0 -12
-5 -16 -14 -13 -8 3 -12 12 -9 20 3 9 0 12 -9 9 -8 -3 -21 2 -29 12 -13 16
-12 17 4 4 23 -18 34 -7 16 16 -7 10 -1 7 14 -6 15 -14 27 -33 27 -42z m-576
34 c-10 -3 -10 -27 2 -102 8 -48 23 -20 18 33 l-4 41 14 -30 c18 -36 20 -55 6
-55 -5 0 -10 -4 -10 -10 0 -6 5 -9 11 -7 6 1 14 -4 17 -12 3 -10 0 -11 -9 -5
-12 7 -12 5 -1 -9 12 -14 12 -19 -1 -32 -19 -19 -27 -19 -27 -1 0 8 -11 50
-25 93 -28 85 -30 98 -16 98 5 0 13 3 17 8 4 4 10 4 13 1 3 -4 1 -8 -5 -11z
m70 1 c3 -8 2 -12 -4 -9 -6 3 -10 10 -10 16 0 14 7 11 14 -7z m402 -44 c9 -33
21 -57 26 -54 5 3 6 14 3 25 -4 11 -2 19 4 19 17 0 13 -59 -4 -77 -20 -19 -24
-15 -45 47 -14 42 -17 100 -4 100 1 0 11 -27 20 -60z m-839 28 c-3 -8 -6 -5
-6 6 -1 11 2 17 5 13 3 -3 4 -12 1 -19z m802 -40 c12 -34 21 -67 21 -74 0 -21
-40 -24 -61 -3 -23 23 -26 48 -3 28 14 -11 15 -10 12 7 -2 12 2 18 11 16 14
-3 12 28 -4 71 -4 9 -5 17 -2 17 3 0 15 -28 26 -62z m-829 43 c0 -5 -16 -26
-35 -45 -44 -46 -46 -36 -2 14 36 43 37 44 37 31z m62 -13 c-7 -7 -12 -8 -12
-2 0 14 12 26 19 19 2 -3 -1 -11 -7 -17z m78 8 c0 -3 -4 -8 -10 -11 -5 -3 -10
-1 -10 4 0 6 5 11 10 11 6 0 10 -2 10 -4z m360 -10 c0 -7 10 -21 23 -30 20
-15 19 -22 -9 -29 -3 -1 -12 15 -19 36 -7 20 -9 37 -4 37 5 0 9 -6 9 -14z
m-349 -26 c-7 -3 -9 -15 -6 -26 6 -18 6 -18 -5 -1 -14 21 -5 52 11 41 8 -5 8
-8 0 -14z m64 10 c3 -5 1 -10 -4 -10 -6 0 -11 5 -11 10 0 6 2 10 4 10 3 0 8
-4 11 -10z m269 -5 c3 -8 1 -15 -4 -15 -6 0 -10 7 -10 15 0 8 2 15 4 15 2 0 6
-7 10 -15z m154 -10 c-3 -3 -9 2 -12 12 -6 14 -5 15 5 6 7 -7 10 -15 7 -18z
m-593 -17 c-4 -18 -11 -37 -15 -42 -5 -5 -4 10 2 33 12 48 23 56 13 9z m255
17 c0 -8 -2 -15 -4 -15 -2 0 -6 7 -10 15 -3 8 -1 15 4 15 6 0 10 -7 10 -15z
m44 0 c-7 -16 -24 -21 -24 -6 0 8 7 13 27 20 1 1 0 -6 -3 -14z m391 -49 c16
-6 21 9 6 18 -9 6 -22 46 -15 46 9 0 44 -81 44 -102 0 -17 -3 -19 -9 -9 -5 7
-13 11 -19 7 -6 -3 -13 2 -15 11 -3 13 -5 10 -6 -7 l-1 -24 -17 24 c-12 17
-13 25 -5 28 8 2 11 17 7 40 l-5 37 10 -31 c6 -18 17 -34 25 -38z m205 50 c0
-3 -4 -8 -10 -11 -5 -3 -10 -1 -10 4 0 6 5 11 10 11 6 0 10 -2 10 -4z m-268
-30 c4 -17 1 -23 -9 -19 -15 6 -15 6 -7 27 8 22 11 20 16 -8z m-209 -1 c-3 -9
-8 -14 -10 -11 -3 3 -2 9 2 15 9 16 15 13 8 -4z m-138 -65 c7 -33 9 -62 5 -65
-4 -3 -10 12 -13 33 -4 20 -9 53 -13 72 -4 19 -3 32 1 28 4 -4 13 -34 20 -68z
m39 45 c9 -14 19 -46 21 -72 4 -37 3 -44 -6 -30 -5 10 -9 25 -6 35 2 9 -5 34
-15 55 -21 42 -18 49 6 12z m-267 -32 c-3 -10 -5 -2 -5 17 0 19 2 27 5 18 2
-10 2 -26 0 -35z m463 32 c1 12 30 -25 30 -38 0 -4 -4 -5 -10 -2 -5 3 -10 1
-10 -6 0 -22 -18 4 -25 36 -5 23 -4 26 4 15 6 -8 11 -10 11 -5z m-493 -57 c-2
-13 -4 -3 -4 22 0 25 2 35 4 23 2 -13 2 -33 0 -45z m130 40 c-3 -8 -6 -5 -6 6
-1 11 2 17 5 13 3 -3 4 -12 1 -19z m281 0 c1 -7 4 -26 8 -43 5 -22 3 -27 -5
-20 -14 14 -26 75 -14 75 5 0 10 -6 11 -12z m-288 -28 c0 -5 -5 -10 -11 -10
-5 0 -7 5 -4 10 3 6 8 10 11 10 2 0 4 -4 4 -10z m157 -27 c-3 -10 -5 -4 -5 12
0 17 2 24 5 18 2 -7 2 -21 0 -30z m196 25 c3 -8 -4 -13 -19 -13 -13 0 -24 6
-24 13 0 6 9 12 19 12 10 0 21 -6 24 -12z m-268 -84 c-9 -14 -13 -29 -10 -34
3 -6 1 -10 -4 -10 -13 0 -15 47 -2 54 5 3 12 23 17 43 l8 38 4 -33 c2 -20 -3
-44 -13 -58z m-178 54 c-3 -8 -6 -5 -6 6 -1 11 2 17 5 13 3 -3 4 -12 1 -19z
m979 3 c21 -2 67 -56 91 -108 13 -28 30 -57 38 -63 8 -7 15 -16 15 -21 0 -14
61 -99 71 -99 5 0 9 -6 9 -14 0 -18 36 -63 44 -55 7 7 -22 68 -41 87 -7 7 -13
19 -13 25 0 6 7 2 15 -10 10 -14 22 -20 31 -16 16 6 124 -45 124 -59 0 -10
-67 -21 -79 -13 -7 3 -11 -2 -11 -13 0 -16 -5 -19 -22 -14 -13 3 -19 1 -15 -5
8 -12 -57 -12 -69 -1 -4 4 -17 5 -29 2 -13 -3 -26 -1 -30 6 -5 8 -10 8 -21 -1
-11 -9 -18 -8 -29 1 -13 11 -18 10 -30 -6 -8 -10 -15 -14 -15 -9 0 10 -187 12
-197 1 -3 -3 -14 -1 -25 5 -14 7 -23 7 -33 -1 -8 -7 -19 -9 -25 -5 -5 3 -10
-1 -10 -9 0 -9 -7 -16 -15 -16 -8 0 -14 -3 -13 -7 0 -5 -3 -17 -8 -28 -12 -26
-42 -28 -50 -3 -3 11 -13 18 -22 16 -10 -2 -21 0 -27 4 -5 5 -38 28 -72 53
-34 24 -90 79 -124 122 -34 43 -68 82 -75 86 -8 4 -14 15 -14 24 0 12 7 14 30
10 36 -8 60 0 60 19 0 8 5 14 11 14 20 0 49 -21 49 -35 0 -8 5 -15 10 -15 11
0 13 11 4 34 -3 9 -12 16 -20 16 -17 0 -18 12 -2 28 10 10 16 8 30 -10 14 -19
18 -20 18 -6 0 9 -5 20 -11 24 -8 4 -7 9 2 15 18 11 32 12 25 1 -2 -4 4 -8 14
-8 10 0 16 6 13 13 -3 7 2 13 12 13 9 0 14 -4 11 -8 -2 -4 4 -8 15 -8 12 0 18
5 15 13 -8 21 22 15 34 -6 15 -30 12 -40 -15 -53 -18 -8 -22 -14 -13 -19 21
-13 51 28 45 60 l-6 27 80 -3 c60 -3 79 -1 79 9 0 9 19 14 57 16 32 2 59 5 61
7 2 2 16 2 30 0 15 -1 32 -3 38 -4z m-921 -42 c-5 -37 -15 -52 -15 -21 0 21 9
52 16 52 1 0 1 -14 -1 -31z m85 1 c0 -5 -5 -10 -11 -10 -5 0 -7 5 -4 10 3 6 8
10 11 10 2 0 4 -4 4 -10z m67 -10 c-3 -21 -17 -40 -17 -22 0 13 11 42 16 42 2
0 3 -9 1 -20z m-87 -40 c0 -5 -2 -10 -4 -10 -3 0 -8 5 -11 10 -3 6 -1 10 4 10
6 0 11 -4 11 -10z m-39 -37 c-12 -20 -14 -14 -5 12 4 9 9 14 11 11 3 -2 0 -13
-6 -23z m191 -90 c-5 -10 -15 -42 -22 -71 -7 -29 -14 -51 -17 -49 -5 6 16 96
30 124 5 13 12 21 14 19 3 -2 0 -13 -5 -23z m-63 -237 c-7 -31 -14 -54 -16
-52 -3 2 1 30 7 61 6 31 14 54 17 52 3 -3 -1 -31 -8 -61z m906 39 c61 -5 127
-7 148 -6 20 1 37 -3 37 -8 0 -14 -45 -17 -120 -9 -151 16 -260 15 -334 -2
-73 -18 -116 -35 -127 -52 -3 -5 -21 -10 -40 -12 -19 -2 -24 -1 -11 1 12 2 22
9 22 14 0 5 7 9 15 9 8 0 15 4 15 8 0 5 17 18 38 30 26 15 66 23 137 29 55 5
102 8 105 7 3 -1 55 -5 115 -9z m-555 -25 c0 -5 -2 -10 -4 -10 -3 0 -8 5 -11
10 -3 6 -1 10 4 10 6 0 11 -4 11 -10z m-40 -30 c0 -5 7 -10 15 -10 8 0 15 -3
15 -7 -1 -14 -38 -53 -49 -53 -7 0 -9 -10 -5 -25 6 -26 -9 -78 -32 -105 -6 -8
-15 -30 -19 -47 -3 -18 -11 -36 -17 -39 -6 -4 -8 1 -4 13 3 11 7 41 8 66 1 27
7 47 14 47 6 0 10 14 9 31 -1 17 4 37 12 44 16 17 17 42 1 47 -6 2 -8 10 -4
17 6 9 11 8 22 -6 14 -17 15 -17 13 2 -1 11 -1 23 0 28 2 11 21 9 21 -3z m435
-60 c-3 -5 -13 -10 -21 -10 -8 0 -12 5 -9 10 3 6 13 10 21 10 8 0 12 -4 9 -10z
m-403 -22 c-7 -7 -12 -8 -12 -2 0 14 12 26 19 19 2 -3 -1 -11 -7 -17z m344 10
c-3 -7 -9 -21 -12 -30 -6 -18 -33 -32 -43 -23 -3 3 1 10 8 15 8 4 11 15 8 23
-7 19 1 27 26 27 11 0 16 -5 13 -12z m201 -2 c-19 -19 -57 -30 -57 -16 0 6 -4
8 -10 5 -5 -3 -10 -15 -10 -26 0 -10 -4 -19 -10 -19 -5 0 -9 15 -7 33 2 33 2
34 55 35 44 1 51 -1 39 -12z m50 8 c-3 -3 -12 -4 -19 -1 -8 3 -5 6 6 6 11 1
17 -2 13 -5z m43 -4 c-8 -5 -19 -10 -25 -10 -5 0 -3 5 5 10 8 5 20 10 25 10 6
0 3 -5 -5 -10z m-203 -16 c-3 -3 -12 -4 -19 -1 -8 3 -5 6 6 6 11 1 17 -2 13
-5z m-179 -22 c3 -9 -6 -11 -37 -6 -29 5 -41 3 -41 -5 0 -8 8 -10 20 -6 11 3
20 2 20 -3 0 -16 -45 -19 -59 -5 -15 16 -14 19 19 32 32 13 72 10 78 -7z m152
-22 c0 -5 -4 -10 -9 -10 -6 0 -13 5 -16 10 -3 6 1 10 9 10 9 0 16 -4 16 -10z
m-310 -10 c0 -5 -5 -10 -11 -10 -5 0 -7 5 -4 10 3 6 8 10 11 10 2 0 4 -4 4
-10z m-70 -34 c0 -22 -47 -130 -59 -134 -6 -2 -11 -12 -11 -22 0 -10 -4 -22
-10 -25 -5 -3 -10 -3 -10 2 0 12 24 75 37 99 7 12 15 36 18 54 3 18 8 37 11
42 7 11 24 0 24 -16z m370 20 c0 -11 -19 -15 -25 -6 -3 5 1 10 9 10 9 0 16 -2
16 -4z m121 -29 c-13 -13 -26 -3 -16 12 3 6 11 8 17 5 6 -4 6 -10 -1 -17z
m-424 -12 c8 -22 -6 -33 -17 -15 -13 20 -12 30 0 30 6 0 13 -7 17 -15z m73
-20 c0 -8 -6 -15 -14 -15 -8 0 -22 -3 -31 -7 -16 -5 -15 -4 1 15 21 25 44 29
44 7z m205 -35 c-3 -5 -10 -10 -16 -10 -5 0 -9 5 -9 10 0 6 7 10 16 10 8 0 12
-4 9 -10z m-58 -6 c-3 -3 -12 -4 -19 -1 -8 3 -5 6 6 6 11 1 17 -2 13 -5z
m-247 -24 c0 -5 -2 -10 -4 -10 -3 0 -8 5 -11 10 -3 6 -1 10 4 10 6 0 11 -4 11
-10z m-225 -20 c3 -5 1 -10 -4 -10 -6 0 -11 5 -11 10 0 6 2 10 4 10 3 0 8 -4
11 -10z m360 -10 c3 -5 1 -10 -4 -10 -6 0 -11 5 -11 10 0 6 2 10 4 10 3 0 8
-4 11 -10z m-125 -30 c0 -5 -4 -10 -10 -10 -5 0 -10 5 -10 10 0 6 5 10 10 10
6 0 10 -4 10 -10z"/>
<path d="M1792 3255 c0 -16 2 -22 5 -12 2 9 2 23 0 30 -3 6 -5 -1 -5 -18z"/>
<path d="M630 3242 c0 -5 131 -9 290 -11 202 -2 290 1 290 8 0 8 -90 11 -290
11 -159 0 -290 -4 -290 -8z"/>
<path d="M1325 3240 c3 -5 8 -10 11 -10 2 0 4 5 4 10 0 6 -5 10 -11 10 -5 0
-7 -4 -4 -10z"/>
<path d="M750 3189 c0 -11 5 -17 10 -14 6 3 10 13 10 21 0 8 -4 14 -10 14 -5
0 -10 -9 -10 -21z"/>
<path d="M1413 3103 c4 -54 7 -122 7 -151 l0 -53 47 3 c43 3 47 5 48 28 0 14
4 25 10 25 5 0 8 -10 7 -22 -3 -22 -1 -23 82 -23 l85 0 -5 53 c-9 93 -15 117
-28 117 -7 0 -21 20 -30 45 l-18 45 -59 -1 c-39 -1 -67 4 -83 15 -14 9 -35 16
-47 16 -22 0 -22 -2 -16 -97z m184 5 c-3 -8 -6 -5 -6 6 -1 11 2 17 5 13 3 -3
4 -12 1 -19z m-27 -70 c0 -9 -4 -19 -10 -23 -5 -3 -7 -12 -3 -20 3 -8 0 -15
-7 -15 -9 0 -11 10 -6 30 3 17 1 30 -4 30 -6 0 -10 -4 -10 -10 0 -5 -6 -10
-14 -10 -11 0 -13 7 -6 30 14 50 21 55 41 29 10 -13 19 -32 19 -41z m67 7 c8
-21 -27 -47 -44 -33 -7 6 -13 19 -13 29 0 24 48 27 57 4z m23 -44 c0 -21 -16
-30 -43 -23 -16 4 -15 6 4 23 28 24 39 24 39 0z m-135 0 c3 -5 1 -12 -5 -16
-5 -3 -10 1 -10 9 0 18 6 21 15 7z m59 -37 c3 -8 2 -12 -4 -9 -6 3 -10 10 -10
16 0 14 7 11 14 -7z"/>
<path d="M1098 3173 c6 -2 18 -2 25 0 6 3 1 5 -13 5 -14 0 -19 -2 -12 -5z"/>
<path d="M1160 3100 c0 -11 7 -20 15 -20 8 0 15 9 15 20 0 11 -7 20 -15 20 -8
0 -15 -9 -15 -20z"/>
<path d="M1220 2989 c0 -6 -8 -8 -19 -4 -11 3 -22 1 -26 -5 -4 -6 6 -10 24
-10 21 0 31 5 31 15 0 8 -2 15 -5 15 -3 0 -5 -5 -5 -11z"/>
<path d="M1171 2888 c0 -13 3 -17 6 -10 2 6 11 12 19 12 9 0 12 5 9 10 -12 19
-35 10 -34 -12z"/>
<path d="M1685 2880 c-27 -5 -98 -6 -157 -3 l-106 6 1 -35 1 -36 50 0 c28 0
66 5 83 11 23 8 36 8 43 1 7 -7 42 -9 88 -7 50 3 72 1 62 -5 -13 -8 -187 -21
-292 -22 -29 0 -36 -4 -34 -17 2 -14 11 -17 34 -15 28 3 32 0 32 -19 0 -18 -3
-20 -12 -11 -18 18 -39 15 -31 -4 3 -9 0 -20 -8 -24 -7 -5 -11 -11 -9 -13 3
-3 83 -2 178 1 l172 5 0 44 c0 37 -3 44 -16 39 -9 -3 -17 -6 -20 -6 -2 0 -1
-6 2 -14 3 -8 1 -17 -5 -21 -10 -5 -15 7 -12 28 2 11 -17 9 -24 -3 -10 -16
-21 -11 -21 10 0 17 7 20 48 20 52 0 55 4 42 69 -7 33 -7 33 -89 21z m-85
-130 c0 -5 -7 -10 -16 -10 -9 0 -18 -9 -21 -20 -8 -30 -20 -24 -21 10 -1 27 3
30 29 30 16 0 29 -4 29 -10z m20 -42 c0 -4 -7 -8 -15 -8 -8 0 -15 4 -15 8 0 5
7 9 15 9 8 0 15 -4 15 -9z m80 2 c0 -5 -2 -10 -4 -10 -3 0 -8 5 -11 10 -3 6
-1 10 4 10 6 0 11 -4 11 -10z"/>
<path d="M1177 2843 c-14 -13 -6 -23 18 -23 16 0 25 6 25 15 0 15 -31 21 -43
8z"/>
<path d="M1185 2780 c-3 -5 -2 -10 4 -10 5 0 13 5 16 10 3 6 2 10 -4 10 -5 0
-13 -4 -16 -10z"/>
<path d="M1188 2733 c6 -2 18 -2 25 0 6 3 1 5 -13 5 -14 0 -19 -2 -12 -5z"/>
<path d="M696 3048 c8 -12 104 -10 104 2 0 6 -23 9 -54 8 -30 -2 -52 -6 -50
-10z"/>
<path d="M2030 1431 c0 -11 5 -23 10 -26 6 -4 8 -10 5 -15 -3 -4 2 -11 11 -14
8 -3 12 -10 9 -16 -3 -5 -1 -10 4 -10 14 0 14 1 -6 46 -9 22 -16 42 -15 47 1
4 -2 7 -8 7 -5 0 -10 -9 -10 -19z"/>
<path d="M1990 1415 c0 -10 27 -75 38 -93 12 -18 17 -20 23 -10 11 17 11 31 0
24 -9 -6 -34 45 -34 68 0 7 -6 13 -14 13 -7 0 -13 -1 -13 -2z"/>
<path d="M2020 1276 c0 -2 7 -9 15 -16 12 -10 15 -10 15 4 0 9 -7 16 -15 16
-8 0 -15 -2 -15 -4z"/>
<path d="M966 1405 c-3 -8 0 -15 6 -15 6 0 8 -3 5 -7 -4 -3 5 -12 19 -20 36
-18 40 -16 19 7 -10 11 -15 20 -10 20 4 0 2 7 -5 15 -7 8 -16 15 -20 15 -4 0
-10 -7 -14 -15z"/>
<path d="M1660 1079 c0 -5 5 -7 10 -4 6 3 10 8 10 11 0 2 -4 4 -10 4 -5 0 -10
-5 -10 -11z"/>
<path d="M2210 820 c0 -5 -7 -10 -15 -10 -24 0 -17 -14 16 -32 54 -31 68 -16
24 28 -14 14 -25 20 -25 14z"/>
<path d="M2008 812 c12 -8 72 -4 72 4 0 2 -19 4 -42 4 -26 0 -38 -4 -30 -8z"/>
<path d="M2050 775 c0 -9 -10 -15 -25 -15 -14 0 -25 -4 -25 -10 0 -13 36 -13
61 0 23 13 25 26 4 34 -9 3 -15 0 -15 -9z"/>
<path d="M1813 767 c-26 -11 -31 -27 -9 -27 8 0 16 -5 18 -11 6 -19 36 1 31
22 -7 26 -14 28 -40 16z"/>
<path d="M2156 765 c4 -8 10 -15 15 -15 5 0 9 7 9 15 0 8 -7 15 -15 15 -9 0
-12 -6 -9 -15z"/>
<path d="M2281 761 c-7 -5 -9 -11 -4 -14 5 -3 15 -2 22 2 7 5 9 11 4 14 -5 3
-15 2 -22 -2z"/>
<path d="M2120 745 c0 -8 -5 -15 -12 -15 -9 0 -9 -3 -1 -11 18 -18 42 -4 36
20 -6 24 -23 28 -23 6z"/>
<path d="M1924 732 c-7 -4 1 -13 22 -24 28 -15 34 -15 34 -3 0 8 -9 19 -19 25
-23 12 -23 12 -37 2z"/>
<path d="M2225 731 c-11 -3 -21 -16 -23 -29 -3 -20 0 -23 17 -17 16 5 23 1 29
-16 l9 -23 6 24 c9 33 -13 68 -38 61z"/>
<path d="M2035 721 l-30 -7 29 -6 c19 -4 35 -1 43 8 16 16 10 17 -42 5z"/>
<path d="M1658 712 c-16 -7 -15 -11 10 -47 37 -54 82 -102 82 -89 0 7 -18 36
-40 65 -22 30 -38 59 -35 66 2 7 3 13 2 12 -1 0 -10 -4 -19 -7z"/>
<path d="M2276 685 c-9 -26 -7 -32 5 -12 6 10 9 21 6 23 -2 3 -7 -2 -11 -11z"/>
<path d="M2330 670 c0 -5 5 -10 10 -10 6 0 10 5 10 10 0 6 -4 10 -10 10 -5 0
-10 -4 -10 -10z"/>
<path d="M1817 624 c3 -7 9 -14 14 -14 14 0 10 17 -5 23 -10 4 -13 1 -9 -9z"/>
<path d="M1760 570 c0 -13 32 -50 44 -50 5 0 18 -7 28 -17 34 -31 19 7 -18 42
-36 35 -54 43 -54 25z"/>
<path d="M127 3533 c-6 -32 9 -55 22 -34 7 11 9 11 14 0 4 -10 6 -9 6 4 1 9 6
17 11 17 6 0 10 5 10 11 0 6 -5 7 -12 2 -25 -15 -39 -12 -33 8 4 10 2 19 -3
19 -5 0 -12 -12 -15 -27z"/>
<path d="M17 3544 c-4 -4 -7 -19 -6 -33 l0 -26 10 24 c10 26 8 47 -4 35z"/>
<path d="M120 3468 c0 -5 9 -8 19 -8 11 0 22 3 24 8 3 4 -6 7 -19 7 -13 0 -24
-3 -24 -7z"/>
<path d="M2595 980 c3 -5 10 -10 16 -10 5 0 9 5 9 10 0 6 -7 10 -16 10 -8 0
-12 -4 -9 -10z"/>
<path d="M2708 983 c-10 -2 -18 -11 -18 -18 0 -9 -8 -12 -20 -10 -11 2 -18 0
-15 -5 6 -9 24 -8 42 3 8 5 11 3 8 -5 -4 -9 4 -14 25 -16 24 -2 30 2 30 18 0
14 -7 20 -22 21 -22 1 -22 1 2 9 20 6 21 8 5 8 -11 0 -28 -2 -37 -5z"/>
<path d="M2435 960 c3 -5 12 -7 20 -3 21 7 19 13 -6 13 -11 0 -18 -4 -14 -10z"/>
<path d="M2525 960 c3 -5 8 -10 11 -10 2 0 4 5 4 10 0 6 -5 10 -11 10 -5 0 -7
-4 -4 -10z"/>
<path d="M2550 940 c0 -5 5 -10 10 -10 6 0 10 5 10 10 0 6 -4 10 -10 10 -5 0
-10 -4 -10 -10z"/>
<path d="M2664 908 c-4 -5 -3 -12 0 -15 3 -4 6 0 6 8 0 11 2 12 9 1 7 -11 9
-11 14 0 6 16 -20 21 -29 6z"/>
<path d="M2580 900 c0 -5 5 -10 10 -10 6 0 10 5 10 10 0 6 -4 10 -10 10 -5 0
-10 -4 -10 -10z"/>
<path d="M2615 880 c3 -5 10 -10 16 -10 5 0 9 5 9 10 0 6 -7 10 -16 10 -8 0
-12 -4 -9 -10z"/>
</g>
</svg>
